<?xml version="1.0" encoding="UTF-8"?>
<svg width="58px" height="50px" viewBox="0 0 58 50" version="1.1" xmlns="http://www.w3.org/2000/svg" xmlns:xlink="http://www.w3.org/1999/xlink">
    <title>Morph Logo Mark</title>
    <g id="Morph-Logo-Mark" stroke="none" fill="none" transform="translate(0, 0)" fill-rule="evenodd" stroke-width="1">
        <g id="Group" transform="translate(1.9047, 0.8506)">
            <polygon id="Path" fill="#121516" points="16.5201531 0 22.158296 0 22.158296 10.7960294 16.5201531 10.7960294"></polygon>
            <rect id="Rectangle" fill="#121516" x="27.5993011" y="0" width="5.4015775" height="10.7577456"></rect>
            <rect id="Rectangle" fill="#121516" x="38.599594" y="0" width="5.48043265" height="10.7577456"></rect>
            <rect id="Rectangle" fill="#434545" x="5.51986022" y="10.7577456" width="5.48043265" height="10.9874484"></rect>
            <rect id="Rectangle" fill="#282B2B" x="16.5201531" y="10.7577456" width="5.55928779" height="10.9874484"></rect>
            <rect id="Rectangle" fill="#282B2B" x="27.5993011" y="10.7577456" width="5.4015775" height="10.9874484"></rect>
            <rect id="Rectangle" fill="#282B2B" x="38.6390215" y="10.7577456" width="5.48043265" height="10.9874484"></rect>
            <rect id="Rectangle" fill="#434545" x="49.8364523" y="10.7577456" width="5.51986022" height="10.9874484"></rect>
            <path d="M10.9604472,21.5154913 L10.9604472,32.0435341 L55.3168849,32.0435341 L55.3168849,21.4389237 C55.3168849,21.4772075 10.803155,21.5154913 10.9604472,21.5154913 Z" id="Path" fill="#000000"></path>
            <g transform="translate(0, 11.064)" id="Rectangle">
                <rect fill="#4F6464" x="0" y="0" width="1" height="1"></rect>
                <rect fill="#4F6464" x="1.69538564" y="0" width="1" height="1"></rect>
                <rect fill="#4F6464" x="3.66676429" y="0" width="1" height="1"></rect>
                <rect fill="#4F6464" x="0.867406606" y="0.803959638" width="1" height="1"></rect>
                <rect fill="#4F6464" x="2.68107496" y="0.803959638" width="1" height="1"></rect>
                <rect fill="#4F6464" x="4.57359847" y="0.803959638" width="1" height="1"></rect>
                <rect fill="#6E8C8C" x="0" y="1.60791928" width="1" height="1"></rect>
                <rect fill="#6E8C8C" x="1.73481321" y="1.60791928" width="1" height="1"></rect>
                <rect fill="#6E8C8C" x="3.62733672" y="1.60791928" width="1" height="1"></rect>
                <rect fill="#6E8C8C" x="0.867406606" y="2.41187891" width="1" height="1"></rect>
                <rect fill="#6E8C8C" x="2.64164739" y="2.41187891" width="1" height="1"></rect>
                <rect fill="#6E8C8C" x="4.57359847" y="2.41187891" width="1" height="1"></rect>
                <rect fill="#6E8C8C" x="0" y="3.33068993" width="1" height="1"></rect>
                <rect fill="#6E8C8C" x="1.73481321" y="3.33068993" width="1" height="1"></rect>
                <rect fill="#6E8C8C" x="3.62733672" y="3.33068993" width="1" height="1"></rect>
                <rect fill="#6E8C8C" x="0.867406606" y="4.28778474" width="1" height="1"></rect>
                <rect fill="#6E8C8C" x="2.64164739" y="4.28778474" width="1" height="1"></rect>
                <rect fill="#6E8C8C" x="4.57359847" y="4.28778474" width="1" height="1"></rect>
                <rect fill="#6E8C8C" x="0" y="5.20659575" width="1" height="1"></rect>
                <rect fill="#6E8C8C" x="1.73481321" y="5.20659575" width="1" height="1"></rect>
                <rect fill="#6E8C8C" x="3.62733672" y="5.20659575" width="1" height="1"></rect>
                <rect fill="#6E8C8C" x="0.867406606" y="6.16369056" width="1" height="1"></rect>
                <rect fill="#6E8C8C" x="2.64164739" y="6.16369056" width="1" height="1"></rect>
                <rect fill="#6E8C8C" x="4.57359847" y="6.16369056" width="1" height="1"></rect>
                <rect fill="#4F6464" x="0" y="7.08250157" width="1" height="1"></rect>
                <rect fill="#4F6464" x="1.73481321" y="7.08250157" width="1" height="1"></rect>
                <rect fill="#4F6464" x="3.62733672" y="7.08250157" width="1" height="1"></rect>
                <rect fill="#6E8C8C" x="0.867406606" y="7.96302879" width="1" height="1"></rect>
                <rect fill="#6E8C8C" x="2.64164739" y="7.96302879" width="1" height="1"></rect>
                <rect fill="#6E8C8C" x="4.57359847" y="7.96302879" width="1" height="1"></rect>
                <rect fill="#4F6464" x="0" y="8.84355602" width="1" height="1"></rect>
                <rect fill="#4F6464" x="1.73481321" y="8.84355602" width="1" height="1"></rect>
                <rect fill="#4F6464" x="3.62733672" y="8.84355602" width="1" height="1"></rect>
                <rect fill="#4F6464" x="0.867406606" y="9.64751566" width="1" height="1"></rect>
                <rect fill="#4F6464" x="2.60221982" y="9.64751566" width="1" height="1"></rect>
                <rect fill="#4F6464" x="4.57359847" y="9.64751566" width="1" height="1"></rect>
            </g>
            <g transform="translate(5.4016, 21.86)" id="Rectangle">
                <rect fill="#4F6464" x="0" y="0" width="1" height="1"></rect>
                <rect fill="#4F6464" x="1.8925235" y="0" width="1" height="1"></rect>
                <rect fill="#4F6464" x="3.82447458" y="0" width="1" height="1"></rect>
                <rect fill="#6E8C8C" x="0.946261752" y="0.880527223" width="1" height="1"></rect>
                <rect fill="#6E8C8C" x="2.87821283" y="0.880527223" width="1" height="1"></rect>
                <rect fill="#6E8C8C" x="4.73130876" y="0.880527223" width="1" height="1"></rect>
                <rect fill="#4F6464" x="0" y="1.76105445" width="1" height="1"></rect>
                <rect fill="#4F6464" x="1.8925235" y="1.76105445" width="1" height="1"></rect>
                <rect fill="#4F6464" x="3.82447458" y="1.76105445" width="1" height="1"></rect>
                <rect fill="#6E8C8C" x="0.946261752" y="2.64158167" width="1" height="1"></rect>
                <rect fill="#6E8C8C" x="2.87821283" y="2.64158167" width="1" height="1"></rect>
                <rect fill="#6E8C8C" x="4.77073633" y="2.60329788" width="1" height="1"></rect>
                <rect fill="#4F6464" x="0" y="3.4838251" width="1" height="1"></rect>
                <rect fill="#4F6464" x="1.8925235" y="3.4838251" width="1" height="1"></rect>
                <rect fill="#4F6464" x="3.82447458" y="3.4838251" width="1" height="1"></rect>
                <rect fill="#6E8C8C" x="0.946261752" y="4.40263611" width="1" height="1"></rect>
                <rect fill="#6E8C8C" x="2.87821283" y="4.40263611" width="1" height="1"></rect>
                <rect fill="#6E8C8C" x="4.77073633" y="4.40263611" width="1" height="1"></rect>
                <rect fill="#4F6464" x="0" y="5.24487954" width="1" height="1"></rect>
                <rect fill="#4F6464" x="1.8925235" y="5.24487954" width="1" height="1"></rect>
                <rect fill="#4F6464" x="3.78504701" y="5.24487954" width="1" height="1"></rect>
                <rect fill="#6E8C8C" x="0.946261752" y="6.04883918" width="1" height="1"></rect>
                <rect fill="#6E8C8C" x="2.87821283" y="6.04883918" width="1" height="1"></rect>
                <rect fill="#6E8C8C" x="4.77073633" y="6.04883918" width="1" height="1"></rect>
                <rect fill="#4F6464" x="0" y="6.85279882" width="1" height="1"></rect>
                <rect fill="#4F6464" x="1.8925235" y="6.85279882" width="1" height="1"></rect>
                <rect fill="#4F6464" x="3.78504701" y="6.85279882" width="1" height="1"></rect>
                <rect fill="#6E8C8C" x="0.946261752" y="7.69504225" width="1" height="1"></rect>
                <rect fill="#6E8C8C" x="2.83878526" y="7.69504225" width="1" height="1"></rect>
                <rect fill="#6E8C8C" x="4.73130876" y="7.69504225" width="1" height="1"></rect>
                <rect fill="#4F6464" x="0" y="8.49900189" width="1" height="1"></rect>
                <rect fill="#4F6464" x="1.8925235" y="8.49900189" width="1" height="1"></rect>
                <rect fill="#4F6464" x="3.78504701" y="8.49900189" width="1" height="1"></rect>
                <rect fill="#6E8C8C" x="0.946261752" y="9.34124532" width="1" height="1"></rect>
                <rect fill="#6E8C8C" x="2.83878526" y="9.34124532" width="1" height="1"></rect>
                <rect fill="#6E8C8C" x="4.73130876" y="9.34124532" width="1" height="1"></rect>
            </g>
            <g transform="translate(10.9214, 32.3498)" fill="#4F6464" id="Rectangle">
                <rect x="0" y="0" width="1" height="1"></rect>
                <rect x="1.93195108" y="0" width="1" height="1"></rect>
                <rect x="3.86390215" y="0" width="1" height="1"></rect>
                <rect x="1.0251169" y="0.918811015" width="1" height="1"></rect>
                <rect x="2.83878526" y="0.918811015" width="1" height="1"></rect>
                <rect x="4.81016391" y="0.918811015" width="1" height="1"></rect>
                <rect x="0" y="1.83762203" width="1" height="1"></rect>
                <rect x="1.93195108" y="1.83762203" width="1" height="1"></rect>
                <rect x="3.86390215" y="1.83762203" width="1" height="1"></rect>
                <rect x="1.0251169" y="2.75643304" width="1" height="1"></rect>
                <rect x="2.87821283" y="2.75643304" width="1" height="1"></rect>
                <rect x="4.81016391" y="2.75643304" width="1" height="1"></rect>
                <rect x="0" y="3.71352785" width="1" height="1"></rect>
                <rect x="1.93195108" y="3.71352785" width="1" height="1"></rect>
                <rect x="3.86390215" y="3.71352785" width="1" height="1"></rect>
                <rect x="1.0251169" y="4.67062266" width="1" height="1"></rect>
                <rect x="2.83878526" y="4.67062266" width="1" height="1"></rect>
                <rect x="4.81016391" y="4.67062266" width="1" height="1"></rect>
                <rect x="0" y="5.58943367" width="1" height="1"></rect>
                <rect x="1.93195108" y="5.58943367" width="1" height="1"></rect>
                <rect x="3.86390215" y="5.58943367" width="1" height="1"></rect>
                <rect x="1.0251169" y="6.4316771" width="1" height="1"></rect>
                <rect x="2.83878526" y="6.4316771" width="1" height="1"></rect>
                <rect x="4.81016391" y="6.4316771" width="1" height="1"></rect>
                <rect x="0" y="7.19735295" width="1" height="1"></rect>
                <rect x="1.93195108" y="7.19735295" width="1" height="1"></rect>
                <rect x="3.86390215" y="7.19735295" width="1" height="1"></rect>
                <rect x="1.0251169" y="7.96302879" width="1" height="1"></rect>
                <rect x="2.83878526" y="8.00131259" width="1" height="1"></rect>
                <rect x="4.81016391" y="7.96302879" width="1" height="1"></rect>
                <rect x="0" y="8.80527223" width="1" height="1"></rect>
                <rect x="1.93195108" y="8.80527223" width="1" height="1"></rect>
                <rect x="3.86390215" y="8.80527223" width="1" height="1"></rect>
                <rect x="1.0251169" y="9.64751566" width="1" height="1"></rect>
                <rect x="2.83878526" y="9.64751566" width="1" height="1"></rect>
                <rect x="4.81016391" y="9.64751566" width="1" height="1"></rect>
            </g>
            <polygon id="Path" fill="#000000" points="16.5201531 32.0435341 22.158296 32.0435341 22.158296 42.8395636 16.5201531 42.8395636"></polygon>
            <polygon id="Path" fill="#000000" points="27.5993011 32.0435341 33.1191613 32.0435341 33.1191613 42.8395636 27.5993011 42.8395636"></polygon>
            <polygon id="Path" fill="#000000" points="38.599594 32.0435341 49.8364523 32.0435341 49.8364523 37.7095354 44.1588818 37.7095354 44.1588818 42.8395636 38.599594 42.8395636"></polygon>
            <polygon id="Path" fill="#000000" points="16.5201531 42.8395636 44.1588818 42.8395636 44.1588818 48.2758621 16.5201531 48.2758621"></polygon>
            <g transform="translate(22.1583, 32.3115)" id="Rectangle">
                <rect fill="#6E8C8C" x="0" y="0" width="1" height="1"></rect>
                <rect fill="#6E8C8C" x="1.81366836" y="0" width="1" height="1"></rect>
                <rect fill="#6E8C8C" x="3.66676429" y="0" width="1" height="1"></rect>
                <rect fill="#6E8C8C" x="0.906834179" y="0.918811015" width="1" height="1"></rect>
                <rect fill="#6E8C8C" x="2.72050254" y="0.918811015" width="1" height="1"></rect>
                <rect fill="#6E8C8C" x="4.61302604" y="0.918811015" width="1" height="1"></rect>
                <rect fill="#6E8C8C" x="0" y="1.87590582" width="1" height="1"></rect>
                <rect fill="#6E8C8C" x="1.81366836" y="1.87590582" width="1" height="1"></rect>
                <rect fill="#6E8C8C" x="3.66676429" y="1.87590582" width="1" height="1"></rect>
                <rect fill="#6E8C8C" x="0.906834179" y="2.83300063" width="1" height="1"></rect>
                <rect fill="#6E8C8C" x="2.72050254" y="2.79471684" width="1" height="1"></rect>
                <rect fill="#6E8C8C" x="4.61302604" y="2.79471684" width="1" height="1"></rect>
                <rect fill="#6E8C8C" x="0" y="3.79009544" width="1" height="1"></rect>
                <rect fill="#6E8C8C" x="1.81366836" y="3.79009544" width="1" height="1"></rect>
                <rect fill="#6E8C8C" x="3.66676429" y="3.79009544" width="1" height="1"></rect>
                <rect fill="#6E8C8C" x="0.906834179" y="4.70890645" width="1" height="1"></rect>
                <rect fill="#6E8C8C" x="2.72050254" y="4.70890645" width="1" height="1"></rect>
                <rect fill="#6E8C8C" x="4.61302604" y="4.70890645" width="1" height="1"></rect>
                <rect fill="#6E8C8C" x="0" y="5.66600126" width="1" height="1"></rect>
                <rect fill="#4F6464" x="1.81366836" y="5.62771747" width="1" height="1"></rect>
                <rect fill="#6E8C8C" x="3.66676429" y="5.62771747" width="1" height="1"></rect>
                <rect fill="#6E8C8C" x="0.906834179" y="6.4699609" width="1" height="1"></rect>
                <rect fill="#6E8C8C" x="2.72050254" y="6.4699609" width="1" height="1"></rect>
                <rect fill="#6E8C8C" x="4.61302604" y="6.4699609" width="1" height="1"></rect>
                <rect fill="#6E8C8C" x="0" y="7.23563674" width="1" height="1"></rect>
                <rect fill="#6E8C8C" x="1.81366836" y="7.23563674" width="1" height="1"></rect>
                <rect fill="#6E8C8C" x="3.66676429" y="7.23563674" width="1" height="1"></rect>
                <rect fill="#6E8C8C" x="0.906834179" y="8.00131259" width="1" height="1"></rect>
                <rect fill="#6E8C8C" x="2.72050254" y="8.00131259" width="1" height="1"></rect>
                <rect fill="#6E8C8C" x="4.61302604" y="8.00131259" width="1" height="1"></rect>
                <rect fill="#6E8C8C" x="0" y="8.88183981" width="1" height="1"></rect>
                <rect fill="#4F6464" x="1.81366836" y="8.88183981" width="1" height="1"></rect>
                <rect fill="#4F6464" x="3.66676429" y="8.88183981" width="1" height="1"></rect>
                <rect fill="#6E8C8C" x="0.906834179" y="9.68579945" width="1" height="1"></rect>
                <rect fill="#6E8C8C" x="2.72050254" y="9.72408324" width="1" height="1"></rect>
                <rect fill="#6E8C8C" x="4.61302604" y="9.72408324" width="1" height="1"></rect>
            </g>
            <g transform="translate(33.1192, 32.3115)" id="Rectangle">
                <rect fill="#6E8C8C" x="0" y="0" width="1" height="1"></rect>
                <rect fill="#6E8C8C" x="1.85309593" y="0" width="1" height="1"></rect>
                <rect fill="#6E8C8C" x="3.70619186" y="0" width="1" height="1"></rect>
                <rect fill="#6E8C8C" x="0.946261752" y="0.918811015" width="1" height="1"></rect>
                <rect fill="#4F6464" x="2.75993011" y="0.918811015" width="1" height="1"></rect>
                <rect fill="#6E8C8C" x="4.69188119" y="0.918811015" width="1" height="1"></rect>
                <rect fill="#6E8C8C" x="0" y="1.87590582" width="1" height="1"></rect>
                <rect fill="#6E8C8C" x="1.85309593" y="1.87590582" width="1" height="1"></rect>
                <rect fill="#4F6464" x="3.70619186" y="1.87590582" width="1" height="1"></rect>
                <rect fill="#4F6464" x="0.946261752" y="2.83300063" width="1" height="1"></rect>
                <rect fill="#6E8C8C" x="2.75993011" y="2.79471684" width="1" height="1"></rect>
                <rect fill="#4F6464" x="4.69188119" y="2.79471684" width="1" height="1"></rect>
                <rect fill="#6E8C8C" x="0" y="3.79009544" width="1" height="1"></rect>
                <rect fill="#6E8C8C" x="1.85309593" y="3.79009544" width="1" height="1"></rect>
                <rect fill="#4F6464" x="3.70619186" y="3.79009544" width="1" height="1"></rect>
                <rect fill="#6E8C8C" x="0.946261752" y="4.70890645" width="1" height="1"></rect>
                <rect fill="#4F6464" x="2.75993011" y="4.70890645" width="1" height="1"></rect>
                <rect fill="#4F6464" x="4.69188119" y="4.70890645" width="1" height="1"></rect>
                <rect fill="#6E8C8C" x="0" y="5.66600126" width="1" height="1"></rect>
                <rect fill="#6E8C8C" x="1.85309593" y="5.62771747" width="1" height="1"></rect>
                <rect fill="#4F6464" x="3.70619186" y="5.62771747" width="1" height="1"></rect>
                <rect fill="#6E8C8C" x="0.946261752" y="6.4699609" width="1" height="1"></rect>
                <rect fill="#6E8C8C" x="2.79935768" y="6.4699609" width="1" height="1"></rect>
                <rect fill="#6E8C8C" x="4.69188119" y="6.4699609" width="1" height="1"></rect>
                <rect fill="#6E8C8C" x="0" y="7.23563674" width="1" height="1"></rect>
                <rect fill="#4F6464" x="1.85309593" y="7.23563674" width="1" height="1"></rect>
                <rect fill="#4F6464" x="3.70619186" y="7.23563674" width="1" height="1"></rect>
                <rect fill="#4F6464" x="0.946261752" y="8.00131259" width="1" height="1"></rect>
                <rect fill="#6E8C8C" x="2.79935768" y="8.00131259" width="1" height="1"></rect>
                <rect fill="#6E8C8C" x="4.69188119" y="8.00131259" width="1" height="1"></rect>
                <rect fill="#6E8C8C" x="0" y="8.88183981" width="1" height="1"></rect>
                <rect fill="#4F6464" x="1.85309593" y="8.88183981" width="1" height="1"></rect>
                <rect fill="#4F6464" x="3.70619186" y="8.88183981" width="1" height="1"></rect>
                <rect fill="#4F6464" x="0.946261752" y="9.68579945" width="1" height="1"></rect>
                <rect fill="#6E8C8C" x="2.75993011" y="9.72408324" width="1" height="1"></rect>
                <rect fill="#6E8C8C" x="4.69188119" y="9.72408324" width="1" height="1"></rect>
            </g>
        </g>
    </g>
</svg>