<?xml version="1.0" encoding="UTF-8"?>
<svg width="332px" height="68px" viewBox="0 0 332 68" version="1.1" xmlns="http://www.w3.org/2000/svg" xmlns:xlink="http://www.w3.org/1999/xlink">
    <title>Group</title>
    <g id="Page-1" stroke="none" stroke-width="1" fill="none" fill-rule="evenodd">
        <g id="Frame" transform="translate(-475, -303)">
            <g id="Group" transform="translate(468, 286)">
                <g id="vectorized_019eb466-91ee-7acc-a133-9e6b5aab9294-copy-2" transform="translate(0, 17)">
                    <g id="Group" transform="translate(7.7087, 1.9365)">
                        <polygon id="Path" fill="#00A1CE" points="11.1773257 0 16.9062059 0 16.9062059 11.3237354 11.1773257 11.3237354"></polygon>
                        <rect id="Rectangle" fill="#00A1CE" x="22.4347756" y="0" width="5.48850761" height="11.2835803"></rect>
                        <rect id="Rectangle" fill="#00A1CE" x="33.6121014" y="0" width="5.56863181" height="11.2835803"></rect>
                        <rect id="Rectangle" fill="#00D7DB" x="0" y="11.2835803" width="5.56863181" height="11.5245109"></rect>
                        <rect id="Rectangle" fill="#00C9E6" x="11.1773257" y="11.2835803" width="5.64875601" height="11.5245109"></rect>
                        <rect id="Rectangle" fill="#00C9E6" x="22.4347756" y="11.2835803" width="5.48850761" height="11.5245109"></rect>
                        <rect id="Rectangle" fill="#00C9E6" x="33.6521635" y="11.2835803" width="5.56863181" height="11.5245109"></rect>
                        <rect id="Rectangle" fill="#00D7DB" x="45.0297997" y="11.2835803" width="5.60869391" height="11.5245109"></rect>
                        <path d="M5.5281449,22.5671606 L5.5281449,33.6098104 L50.5984315,33.6098104 L50.5984315,22.4868505 C50.5984315,22.5270055 5.36832131,22.5671606 5.5281449,22.5671606 Z" id="Path" fill="#00FFB2"></path>
                        <polygon id="Path" fill="#00F880" points="11.1773257 33.6098104 16.9062059 33.6098104 16.9062059 44.9335458 11.1773257 44.9335458"></polygon>
                        <polygon id="Path" fill="#00F880" points="22.4347756 33.6098104 28.0434696 33.6098104 28.0434696 44.9335458 22.4347756 44.9335458"></polygon>
                        <polygon id="Path" fill="#00F880" points="33.6121014 33.6098104 45.0297997 33.6098104 45.0297997 39.5527637 39.2608574 39.5527637 39.2608574 44.9335458 33.6121014 44.9335458"></polygon>
                        <polygon id="Path" fill="#00FB66" points="11.1773257 44.9335458 39.2608574 44.9335458 39.2608574 50.6355686 11.1773257 50.6355686"></polygon>
                    </g>
                </g>
                <g id="Morph" transform="translate(80, 0)" fill="#000000" fill-rule="nonzero">
                    <polygon id="Path" points="12.64 71 12.64 38.12 12.32 30.36 12.96 30.36 16.24 38.12 31.04 67.8 41.44 67.8 56.24 38.12 59.52 30.36 60.16 30.36 59.84 38.12 59.84 71 68.48 71 68.48 17.4 56.72 17.4 41.44 48.44 36.72 59.56 36.08 59.56 31.2 48.44 15.76 17.4 4 17.4 4 71"></polygon>
                    <path d="M96.8,71.8 C110.08,71.8 118.96,63.4 118.96,51.16 C118.96,38.76 110.08,30.44 96.8,30.44 C83.6,30.44 74.72,38.76 74.72,51.16 C74.72,63.4 83.6,71.8 96.8,71.8 Z M96.8,64.12 C87.2,64.12 83.2,59.56 83.2,51.16 C83.2,42.68 87.2,38.04 96.8,38.04 C106.48,38.04 110.48,42.68 110.48,51.16 C110.48,59.56 106.48,64.12 96.8,64.12 Z" id="Shape"></path>
                    <path d="M133.84,71 L133.84,48.68 C133.84,41.56 136.64,37.8 143.44,37.8 C149.36,37.8 151.76,40.44 151.76,46.12 L151.76,49.64 L160.32,49.64 L160.32,44.44 C160.32,36.92 156.4,30.44 147.36,30.44 C139.2,30.44 134.88,35.56 133.68,41.96 L133.12,41.96 L133.12,31.24 L125.2,31.24 L125.2,71 L133.84,71 Z" id="Path"></path>
                    <path d="M174.4,84.6 L174.4,59.8 L174.72,59.8 C176.32,67.08 182.08,71.8 191.04,71.8 C203.44,71.8 210.24,63.48 210.24,51.16 C210.24,38.84 203.28,30.44 190.96,30.44 C181.6,30.44 176,34.92 174.4,42.28 L173.68,42.28 L173.68,31.24 L165.76,31.24 L165.76,84.6 L174.4,84.6 Z M174.4,51.8 L174.4,51.08 C174.4,42.52 179.36,38.36 188.24,38.36 C196.56,38.36 201.6,41.56 201.6,51.16 C201.6,60.68 196.64,63.96 188.08,63.96 C179.6,63.96 174.4,59.96 174.4,51.8 Z" id="Shape"></path>
                    <path d="M224.88,71 L224.88,51.72 C224.88,43.32 228.24,38.2 237.68,38.2 C245.92,38.2 249.52,41.4 249.52,49.4 L249.52,71 L258.08,71 L258.08,47.32 C258.08,37.64 252.72,30.44 241.76,30.44 C231.6,30.44 226.72,36.68 225.36,43.4 L224.88,43.4 L224.88,17.4 L216.24,17.4 L216.24,71 L224.88,71 Z" id="Path"></path>
                </g>
            </g>
        </g>
    </g>
</svg>