<?xml version="1.0" encoding="UTF-8"?>
<svg width="337px" height="68px" viewBox="0 0 337 68" version="1.1" xmlns="http://www.w3.org/2000/svg" xmlns:xlink="http://www.w3.org/1999/xlink">
    <title>Group 2</title>
    <g id="Page-1" stroke="none" stroke-width="1" fill="none" fill-rule="evenodd">
        <g id="Frame" transform="translate(-470, -303)">
            <g id="Group-2" transform="translate(468, 286)">
                <g id="Hand-Logo-Mark" transform="translate(1, 21)">
                    <g id="Group" transform="translate(1.9047, 0.8506)">
                        <polygon id="Path" fill="#121516" points="16.5201531 0 22.158296 0 22.158296 10.7960294 16.5201531 10.7960294"></polygon>
                        <rect id="Rectangle" fill="#121516" x="27.5993011" y="0" width="5.4015775" height="10.7577456"></rect>
                        <rect id="Rectangle" fill="#121516" x="38.599594" y="0" width="5.48043265" height="10.7577456"></rect>
                        <rect id="Rectangle" fill="#434545" x="5.51986022" y="10.7577456" width="5.48043265" height="10.9874484"></rect>
                        <rect id="Rectangle" fill="#282B2B" x="16.5201531" y="10.7577456" width="5.55928779" height="10.9874484"></rect>
                        <rect id="Rectangle" fill="#282B2B" x="27.5993011" y="10.7577456" width="5.4015775" height="10.9874484"></rect>
                        <rect id="Rectangle" fill="#282B2B" x="38.6390215" y="10.7577456" width="5.48043265" height="10.9874484"></rect>
                        <rect id="Rectangle" fill="#434545" x="49.8364523" y="10.7577456" width="5.51986022" height="10.9874484"></rect>
                        <path d="M10.9604472,21.5154913 L10.9604472,32.0435341 L55.3168849,32.0435341 L55.3168849,21.4389237 C55.3168849,21.4772075 10.803155,21.5154913 10.9604472,21.5154913 Z" id="Path" fill="#000000"></path>
                        <g transform="translate(0, 11.064)" id="Rectangle">
                            <rect fill="#4F6464" x="0" y="0" width="1" height="1"></rect>
                            <rect fill="#4F6464" x="1.69538564" y="0" width="1" height="1"></rect>
                            <rect fill="#4F6464" x="3.66676429" y="0" width="1" height="1"></rect>
                            <rect fill="#4F6464" x="0.867406606" y="0.803959638" width="1" height="1"></rect>
                            <rect fill="#4F6464" x="2.68107496" y="0.803959638" width="1" height="1"></rect>
                            <rect fill="#4F6464" x="4.57359847" y="0.803959638" width="1" height="1"></rect>
                            <rect fill="#6E8C8C" x="0" y="1.60791928" width="1" height="1"></rect>
                            <rect fill="#6E8C8C" x="1.73481321" y="1.60791928" width="1" height="1"></rect>
                            <rect fill="#6E8C8C" x="3.62733672" y="1.60791928" width="1" height="1"></rect>
                            <rect fill="#6E8C8C" x="0.867406606" y="2.41187891" width="1" height="1"></rect>
                            <rect fill="#6E8C8C" x="2.64164739" y="2.41187891" width="1" height="1"></rect>
                            <rect fill="#6E8C8C" x="4.57359847" y="2.41187891" width="1" height="1"></rect>
                            <rect fill="#6E8C8C" x="0" y="3.33068993" width="1" height="1"></rect>
                            <rect fill="#6E8C8C" x="1.73481321" y="3.33068993" width="1" height="1"></rect>
                            <rect fill="#6E8C8C" x="3.62733672" y="3.33068993" width="1" height="1"></rect>
                            <rect fill="#6E8C8C" x="0.867406606" y="4.28778474" width="1" height="1"></rect>
                            <rect fill="#6E8C8C" x="2.64164739" y="4.28778474" width="1" height="1"></rect>
                            <rect fill="#6E8C8C" x="4.57359847" y="4.28778474" width="1" height="1"></rect>
                            <rect fill="#6E8C8C" x="0" y="5.20659575" width="1" height="1"></rect>
                            <rect fill="#6E8C8C" x="1.73481321" y="5.20659575" width="1" height="1"></rect>
                            <rect fill="#6E8C8C" x="3.62733672" y="5.20659575" width="1" height="1"></rect>
                            <rect fill="#6E8C8C" x="0.867406606" y="6.16369056" width="1" height="1"></rect>
                            <rect fill="#6E8C8C" x="2.64164739" y="6.16369056" width="1" height="1"></rect>
                            <rect fill="#6E8C8C" x="4.57359847" y="6.16369056" width="1" height="1"></rect>
                            <rect fill="#4F6464" x="0" y="7.08250157" width="1" height="1"></rect>
                            <rect fill="#4F6464" x="1.73481321" y="7.08250157" width="1" height="1"></rect>
                            <rect fill="#4F6464" x="3.62733672" y="7.08250157" width="1" height="1"></rect>
                            <rect fill="#6E8C8C" x="0.867406606" y="7.96302879" width="1" height="1"></rect>
                            <rect fill="#6E8C8C" x="2.64164739" y="7.96302879" width="1" height="1"></rect>
                            <rect fill="#6E8C8C" x="4.57359847" y="7.96302879" width="1" height="1"></rect>
                            <rect fill="#4F6464" x="0" y="8.84355602" width="1" height="1"></rect>
                            <rect fill="#4F6464" x="1.73481321" y="8.84355602" width="1" height="1"></rect>
                            <rect fill="#4F6464" x="3.62733672" y="8.84355602" width="1" height="1"></rect>
                            <rect fill="#4F6464" x="0.867406606" y="9.64751566" width="1" height="1"></rect>
                            <rect fill="#4F6464" x="2.60221982" y="9.64751566" width="1" height="1"></rect>
                            <rect fill="#4F6464" x="4.57359847" y="9.64751566" width="1" height="1"></rect>
                        </g>
                        <g transform="translate(5.4016, 21.86)" id="Rectangle">
                            <rect fill="#4F6464" x="0" y="0" width="1" height="1"></rect>
                            <rect fill="#4F6464" x="1.8925235" y="0" width="1" height="1"></rect>
                            <rect fill="#4F6464" x="3.82447458" y="0" width="1" height="1"></rect>
                            <rect fill="#6E8C8C" x="0.946261752" y="0.880527223" width="1" height="1"></rect>
                            <rect fill="#6E8C8C" x="2.87821283" y="0.880527223" width="1" height="1"></rect>
                            <rect fill="#6E8C8C" x="4.73130876" y="0.880527223" width="1" height="1"></rect>
                            <rect fill="#4F6464" x="0" y="1.76105445" width="1" height="1"></rect>
                            <rect fill="#4F6464" x="1.8925235" y="1.76105445" width="1" height="1"></rect>
                            <rect fill="#4F6464" x="3.82447458" y="1.76105445" width="1" height="1"></rect>
                            <rect fill="#6E8C8C" x="0.946261752" y="2.64158167" width="1" height="1"></rect>
                            <rect fill="#6E8C8C" x="2.87821283" y="2.64158167" width="1" height="1"></rect>
                            <rect fill="#6E8C8C" x="4.77073633" y="2.60329788" width="1" height="1"></rect>
                            <rect fill="#4F6464" x="0" y="3.4838251" width="1" height="1"></rect>
                            <rect fill="#4F6464" x="1.8925235" y="3.4838251" width="1" height="1"></rect>
                            <rect fill="#4F6464" x="3.82447458" y="3.4838251" width="1" height="1"></rect>
                            <rect fill="#6E8C8C" x="0.946261752" y="4.40263611" width="1" height="1"></rect>
                            <rect fill="#6E8C8C" x="2.87821283" y="4.40263611" width="1" height="1"></rect>
                            <rect fill="#6E8C8C" x="4.77073633" y="4.40263611" width="1" height="1"></rect>
                            <rect fill="#4F6464" x="0" y="5.24487954" width="1" height="1"></rect>
                            <rect fill="#4F6464" x="1.8925235" y="5.24487954" width="1" height="1"></rect>
                            <rect fill="#4F6464" x="3.78504701" y="5.24487954" width="1" height="1"></rect>
                            <rect fill="#6E8C8C" x="0.946261752" y="6.04883918" width="1" height="1"></rect>
                            <rect fill="#6E8C8C" x="2.87821283" y="6.04883918" width="1" height="1"></rect>
                            <rect fill="#6E8C8C" x="4.77073633" y="6.04883918" width="1" height="1"></rect>
                            <rect fill="#4F6464" x="0" y="6.85279882" width="1" height="1"></rect>
                            <rect fill="#4F6464" x="1.8925235" y="6.85279882" width="1" height="1"></rect>
                            <rect fill="#4F6464" x="3.78504701" y="6.85279882" width="1" height="1"></rect>
                            <rect fill="#6E8C8C" x="0.946261752" y="7.69504225" width="1" height="1"></rect>
                            <rect fill="#6E8C8C" x="2.83878526" y="7.69504225" width="1" height="1"></rect>
                            <rect fill="#6E8C8C" x="4.73130876" y="7.69504225" width="1" height="1"></rect>
                            <rect fill="#4F6464" x="0" y="8.49900189" width="1" height="1"></rect>
                            <rect fill="#4F6464" x="1.8925235" y="8.49900189" width="1" height="1"></rect>
                            <rect fill="#4F6464" x="3.78504701" y="8.49900189" width="1" height="1"></rect>
                            <rect fill="#6E8C8C" x="0.946261752" y="9.34124532" width="1" height="1"></rect>
                            <rect fill="#6E8C8C" x="2.83878526" y="9.34124532" width="1" height="1"></rect>
                            <rect fill="#6E8C8C" x="4.73130876" y="9.34124532" width="1" height="1"></rect>
                        </g>
                        <g transform="translate(10.9214, 32.3498)" fill="#4F6464" id="Rectangle">
                            <rect x="0" y="0" width="1" height="1"></rect>
                            <rect x="1.93195108" y="0" width="1" height="1"></rect>
                            <rect x="3.86390215" y="0" width="1" height="1"></rect>
                            <rect x="1.0251169" y="0.918811015" width="1" height="1"></rect>
                            <rect x="2.83878526" y="0.918811015" width="1" height="1"></rect>
                            <rect x="4.81016391" y="0.918811015" width="1" height="1"></rect>
                            <rect x="0" y="1.83762203" width="1" height="1"></rect>
                            <rect x="1.93195108" y="1.83762203" width="1" height="1"></rect>
                            <rect x="3.86390215" y="1.83762203" width="1" height="1"></rect>
                            <rect x="1.0251169" y="2.75643304" width="1" height="1"></rect>
                            <rect x="2.87821283" y="2.75643304" width="1" height="1"></rect>
                            <rect x="4.81016391" y="2.75643304" width="1" height="1"></rect>
                            <rect x="0" y="3.71352785" width="1" height="1"></rect>
                            <rect x="1.93195108" y="3.71352785" width="1" height="1"></rect>
                            <rect x="3.86390215" y="3.71352785" width="1" height="1"></rect>
                            <rect x="1.0251169" y="4.67062266" width="1" height="1"></rect>
                            <rect x="2.83878526" y="4.67062266" width="1" height="1"></rect>
                            <rect x="4.81016391" y="4.67062266" width="1" height="1"></rect>
                            <rect x="0" y="5.58943367" width="1" height="1"></rect>
                            <rect x="1.93195108" y="5.58943367" width="1" height="1"></rect>
                            <rect x="3.86390215" y="5.58943367" width="1" height="1"></rect>
                            <rect x="1.0251169" y="6.4316771" width="1" height="1"></rect>
                            <rect x="2.83878526" y="6.4316771" width="1" height="1"></rect>
                            <rect x="4.81016391" y="6.4316771" width="1" height="1"></rect>
                            <rect x="0" y="7.19735295" width="1" height="1"></rect>
                            <rect x="1.93195108" y="7.19735295" width="1" height="1"></rect>
                            <rect x="3.86390215" y="7.19735295" width="1" height="1"></rect>
                            <rect x="1.0251169" y="7.96302879" width="1" height="1"></rect>
                            <rect x="2.83878526" y="8.00131259" width="1" height="1"></rect>
                            <rect x="4.81016391" y="7.96302879" width="1" height="1"></rect>
                            <rect x="0" y="8.80527223" width="1" height="1"></rect>
                            <rect x="1.93195108" y="8.80527223" width="1" height="1"></rect>
                            <rect x="3.86390215" y="8.80527223" width="1" height="1"></rect>
                            <rect x="1.0251169" y="9.64751566" width="1" height="1"></rect>
                            <rect x="2.83878526" y="9.64751566" width="1" height="1"></rect>
                            <rect x="4.81016391" y="9.64751566" width="1" height="1"></rect>
                        </g>
                        <polygon id="Path" fill="#000000" points="16.5201531 32.0435341 22.158296 32.0435341 22.158296 42.8395636 16.5201531 42.8395636"></polygon>
                        <polygon id="Path" fill="#000000" points="27.5993011 32.0435341 33.1191613 32.0435341 33.1191613 42.8395636 27.5993011 42.8395636"></polygon>
                        <polygon id="Path" fill="#000000" points="38.599594 32.0435341 49.8364523 32.0435341 49.8364523 37.7095354 44.1588818 37.7095354 44.1588818 42.8395636 38.599594 42.8395636"></polygon>
                        <polygon id="Path" fill="#000000" points="16.5201531 42.8395636 44.1588818 42.8395636 44.1588818 48.2758621 16.5201531 48.2758621"></polygon>
                        <g transform="translate(22.1583, 32.3115)" id="Rectangle">
                            <rect fill="#6E8C8C" x="0" y="0" width="1" height="1"></rect>
                            <rect fill="#6E8C8C" x="1.81366836" y="0" width="1" height="1"></rect>
                            <rect fill="#6E8C8C" x="3.66676429" y="0" width="1" height="1"></rect>
                            <rect fill="#6E8C8C" x="0.906834179" y="0.918811015" width="1" height="1"></rect>
                            <rect fill="#6E8C8C" x="2.72050254" y="0.918811015" width="1" height="1"></rect>
                            <rect fill="#6E8C8C" x="4.61302604" y="0.918811015" width="1" height="1"></rect>
                            <rect fill="#6E8C8C" x="0" y="1.87590582" width="1" height="1"></rect>
                            <rect fill="#6E8C8C" x="1.81366836" y="1.87590582" width="1" height="1"></rect>
                            <rect fill="#6E8C8C" x="3.66676429" y="1.87590582" width="1" height="1"></rect>
                            <rect fill="#6E8C8C" x="0.906834179" y="2.83300063" width="1" height="1"></rect>
                            <rect fill="#6E8C8C" x="2.72050254" y="2.79471684" width="1" height="1"></rect>
                            <rect fill="#6E8C8C" x="4.61302604" y="2.79471684" width="1" height="1"></rect>
                            <rect fill="#6E8C8C" x="0" y="3.79009544" width="1" height="1"></rect>
                            <rect fill="#6E8C8C" x="1.81366836" y="3.79009544" width="1" height="1"></rect>
                            <rect fill="#6E8C8C" x="3.66676429" y="3.79009544" width="1" height="1"></rect>
                            <rect fill="#6E8C8C" x="0.906834179" y="4.70890645" width="1" height="1"></rect>
                            <rect fill="#6E8C8C" x="2.72050254" y="4.70890645" width="1" height="1"></rect>
                            <rect fill="#6E8C8C" x="4.61302604" y="4.70890645" width="1" height="1"></rect>
                            <rect fill="#6E8C8C" x="0" y="5.66600126" width="1" height="1"></rect>
                            <rect fill="#4F6464" x="1.81366836" y="5.62771747" width="1" height="1"></rect>
                            <rect fill="#6E8C8C" x="3.66676429" y="5.62771747" width="1" height="1"></rect>
                            <rect fill="#6E8C8C" x="0.906834179" y="6.4699609" width="1" height="1"></rect>
                            <rect fill="#6E8C8C" x="2.72050254" y="6.4699609" width="1" height="1"></rect>
                            <rect fill="#6E8C8C" x="4.61302604" y="6.4699609" width="1" height="1"></rect>
                            <rect fill="#6E8C8C" x="0" y="7.23563674" width="1" height="1"></rect>
                            <rect fill="#6E8C8C" x="1.81366836" y="7.23563674" width="1" height="1"></rect>
                            <rect fill="#6E8C8C" x="3.66676429" y="7.23563674" width="1" height="1"></rect>
                            <rect fill="#6E8C8C" x="0.906834179" y="8.00131259" width="1" height="1"></rect>
                            <rect fill="#6E8C8C" x="2.72050254" y="8.00131259" width="1" height="1"></rect>
                            <rect fill="#6E8C8C" x="4.61302604" y="8.00131259" width="1" height="1"></rect>
                            <rect fill="#6E8C8C" x="0" y="8.88183981" width="1" height="1"></rect>
                            <rect fill="#4F6464" x="1.81366836" y="8.88183981" width="1" height="1"></rect>
                            <rect fill="#4F6464" x="3.66676429" y="8.88183981" width="1" height="1"></rect>
                            <rect fill="#6E8C8C" x="0.906834179" y="9.68579945" width="1" height="1"></rect>
                            <rect fill="#6E8C8C" x="2.72050254" y="9.72408324" width="1" height="1"></rect>
                            <rect fill="#6E8C8C" x="4.61302604" y="9.72408324" width="1" height="1"></rect>
                        </g>
                        <g transform="translate(33.1192, 32.3115)" id="Rectangle">
                            <rect fill="#6E8C8C" x="0" y="0" width="1" height="1"></rect>
                            <rect fill="#6E8C8C" x="1.85309593" y="0" width="1" height="1"></rect>
                            <rect fill="#6E8C8C" x="3.70619186" y="0" width="1" height="1"></rect>
                            <rect fill="#6E8C8C" x="0.946261752" y="0.918811015" width="1" height="1"></rect>
                            <rect fill="#4F6464" x="2.75993011" y="0.918811015" width="1" height="1"></rect>
                            <rect fill="#6E8C8C" x="4.69188119" y="0.918811015" width="1" height="1"></rect>
                            <rect fill="#6E8C8C" x="0" y="1.87590582" width="1" height="1"></rect>
                            <rect fill="#6E8C8C" x="1.85309593" y="1.87590582" width="1" height="1"></rect>
                            <rect fill="#4F6464" x="3.70619186" y="1.87590582" width="1" height="1"></rect>
                            <rect fill="#4F6464" x="0.946261752" y="2.83300063" width="1" height="1"></rect>
                            <rect fill="#6E8C8C" x="2.75993011" y="2.79471684" width="1" height="1"></rect>
                            <rect fill="#4F6464" x="4.69188119" y="2.79471684" width="1" height="1"></rect>
                            <rect fill="#6E8C8C" x="0" y="3.79009544" width="1" height="1"></rect>
                            <rect fill="#6E8C8C" x="1.85309593" y="3.79009544" width="1" height="1"></rect>
                            <rect fill="#4F6464" x="3.70619186" y="3.79009544" width="1" height="1"></rect>
                            <rect fill="#6E8C8C" x="0.946261752" y="4.70890645" width="1" height="1"></rect>
                            <rect fill="#4F6464" x="2.75993011" y="4.70890645" width="1" height="1"></rect>
                            <rect fill="#4F6464" x="4.69188119" y="4.70890645" width="1" height="1"></rect>
                            <rect fill="#6E8C8C" x="0" y="5.66600126" width="1" height="1"></rect>
                            <rect fill="#6E8C8C" x="1.85309593" y="5.62771747" width="1" height="1"></rect>
                            <rect fill="#4F6464" x="3.70619186" y="5.62771747" width="1" height="1"></rect>
                            <rect fill="#6E8C8C" x="0.946261752" y="6.4699609" width="1" height="1"></rect>
                            <rect fill="#6E8C8C" x="2.79935768" y="6.4699609" width="1" height="1"></rect>
                            <rect fill="#6E8C8C" x="4.69188119" y="6.4699609" width="1" height="1"></rect>
                            <rect fill="#6E8C8C" x="0" y="7.23563674" width="1" height="1"></rect>
                            <rect fill="#4F6464" x="1.85309593" y="7.23563674" width="1" height="1"></rect>
                            <rect fill="#4F6464" x="3.70619186" y="7.23563674" width="1" height="1"></rect>
                            <rect fill="#4F6464" x="0.946261752" y="8.00131259" width="1" height="1"></rect>
                            <rect fill="#6E8C8C" x="2.79935768" y="8.00131259" width="1" height="1"></rect>
                            <rect fill="#6E8C8C" x="4.69188119" y="8.00131259" width="1" height="1"></rect>
                            <rect fill="#6E8C8C" x="0" y="8.88183981" width="1" height="1"></rect>
                            <rect fill="#4F6464" x="1.85309593" y="8.88183981" width="1" height="1"></rect>
                            <rect fill="#4F6464" x="3.70619186" y="8.88183981" width="1" height="1"></rect>
                            <rect fill="#4F6464" x="0.946261752" y="9.68579945" width="1" height="1"></rect>
                            <rect fill="#6E8C8C" x="2.75993011" y="9.72408324" width="1" height="1"></rect>
                            <rect fill="#6E8C8C" x="4.69188119" y="9.72408324" width="1" height="1"></rect>
                        </g>
                    </g>
                </g>
                <g id="Morph" transform="translate(80, 0)" fill="#000000" fill-rule="nonzero">
                    <polygon id="Path" points="12.64 71 12.64 38.12 12.32 30.36 12.96 30.36 16.24 38.12 31.04 67.8 41.44 67.8 56.24 38.12 59.52 30.36 60.16 30.36 59.84 38.12 59.84 71 68.48 71 68.48 17.4 56.72 17.4 41.44 48.44 36.72 59.56 36.08 59.56 31.2 48.44 15.76 17.4 4 17.4 4 71"></polygon>
                    <path d="M96.8,71.8 C110.08,71.8 118.96,63.4 118.96,51.16 C118.96,38.76 110.08,30.44 96.8,30.44 C83.6,30.44 74.72,38.76 74.72,51.16 C74.72,63.4 83.6,71.8 96.8,71.8 Z M96.8,64.12 C87.2,64.12 83.2,59.56 83.2,51.16 C83.2,42.68 87.2,38.04 96.8,38.04 C106.48,38.04 110.48,42.68 110.48,51.16 C110.48,59.56 106.48,64.12 96.8,64.12 Z" id="Shape"></path>
                    <path d="M133.84,71 L133.84,48.68 C133.84,41.56 136.64,37.8 143.44,37.8 C149.36,37.8 151.76,40.44 151.76,46.12 L151.76,49.64 L160.32,49.64 L160.32,44.44 C160.32,36.92 156.4,30.44 147.36,30.44 C139.2,30.44 134.88,35.56 133.68,41.96 L133.12,41.96 L133.12,31.24 L125.2,31.24 L125.2,71 L133.84,71 Z" id="Path"></path>
                    <path d="M174.4,84.6 L174.4,59.8 L174.72,59.8 C176.32,67.08 182.08,71.8 191.04,71.8 C203.44,71.8 210.24,63.48 210.24,51.16 C210.24,38.84 203.28,30.44 190.96,30.44 C181.6,30.44 176,34.92 174.4,42.28 L173.68,42.28 L173.68,31.24 L165.76,31.24 L165.76,84.6 L174.4,84.6 Z M174.4,51.8 L174.4,51.08 C174.4,42.52 179.36,38.36 188.24,38.36 C196.56,38.36 201.6,41.56 201.6,51.16 C201.6,60.68 196.64,63.96 188.08,63.96 C179.6,63.96 174.4,59.96 174.4,51.8 Z" id="Shape"></path>
                    <path d="M224.88,71 L224.88,51.72 C224.88,43.32 228.24,38.2 237.68,38.2 C245.92,38.2 249.52,41.4 249.52,49.4 L249.52,71 L258.08,71 L258.08,47.32 C258.08,37.64 252.72,30.44 241.76,30.44 C231.6,30.44 226.72,36.68 225.36,43.4 L224.88,43.4 L224.88,17.4 L216.24,17.4 L216.24,71 L224.88,71 Z" id="Path"></path>
                </g>
            </g>
        </g>
    </g>
</svg>