<?xml version="1.0" encoding="UTF-8"?>
<svg width="285px" height="53px" viewBox="0 0 285 53" version="1.1" xmlns="http://www.w3.org/2000/svg" xmlns:xlink="http://www.w3.org/1999/xlink">
    <title>Stack</title>
    <defs>
        <path d="M76.1419983,53.5 L76.1419983,3.5 L86.1419983,3.5 L86.1419983,23.5 L106.141998,23.5 L106.141998,3.5 L116.141998,3.5 L116.141998,53.5 L106.141998,53.5 L106.141998,33.5 L86.1419983,33.5 L86.1419983,53.5 L76.1419983,53.5 Z M131.141998,53.5 L131.141998,13.5 L141.141998,13.5 L141.141998,3.5 L161.141998,3.5 L161.141998,13.5 L171.141998,13.5 L171.141998,53.5 L161.141998,53.5 L161.141998,33.5 L141.141998,33.5 L141.141998,53.5 L131.141998,53.5 Z M141.141998,23.5 L161.141998,23.5 L161.141998,13.9 L141.141998,13.9 L141.141998,23.5 Z M186.141998,53.5 L186.141998,3.5 L196.141998,3.5 L196.141998,13.5 L206.141998,13.5 L206.141998,23.5 L216.141998,23.5 L216.141998,33.5 L226.141998,33.5 L226.141998,3.5 L236.141998,3.5 L236.141998,53.5 L226.141998,53.5 L226.141998,43.5 L216.141998,43.5 L216.141998,33.5 L206.141998,33.5 L206.141998,23.5 L196.141998,23.5 L196.141998,53.5 L186.141998,53.5 Z M251.141998,53.5 L251.141998,3.5 L281.141998,3.5 L281.141998,13.5 L291.141998,13.5 L291.141998,43.5 L281.141998,43.5 L281.141998,53.5 L251.141998,53.5 Z M261.141998,43.5 L280.741998,43.5 L280.741998,13.5 L261.141998,13.5 L261.141998,43.5 Z M41.9766809,35.669914 L36.3196581,35.6699141 L36.3196581,47.1923115 L30.6219373,47.1923115 L30.6219373,35.6699141 L25.0056125,35.6699141 L25.0056125,47.1923115 L19.1857977,47.1923115 L19.1857977,35.6699141 L13.4469474,35.6699141 L13.4463333,24.6784579 L7.83105413,24.678691 L7.83105413,12.9519958 L13.4880769,12.9519958 L13.4864817,24.4334902 C13.8018047,24.4331785 15.9612054,24.4312007 19.1847175,24.4279031 L19.1857977,12.9928553 L19.1857977,1.4704579 L25.0056125,1.4704579 L25.0056125,12.9928553 L24.9233333,12.9924579 L24.9227033,24.421786 C26.7180602,24.4197925 28.6393294,24.4175818 30.6217133,24.4151827 L30.6219373,12.9519958 L30.6219373,1.4704579 L36.1975641,1.4704579 L36.1975641,12.9519958 L36.197963,24.4081045 C38.155607,24.4054927 40.1146316,24.4027316 42.0177739,24.3998468 L42.0173789,12.9519958 L41.9766809,12.9519958 L41.9766809,1.4704579 L47.6337037,1.4704579 L47.6337037,12.9519958 L47.6744017,12.9519958 L47.6749839,24.3905358 C49.8668206,24.3865832 51.8732354,24.3824733 53.5770672,24.3782582 L53.5756125,12.9519958 L59.2733333,12.9519958 L59.2733333,24.678691 L59.2323333,24.6784579 L59.2326353,35.6699141 L53.5756125,35.6699141 L53.5756125,41.7171298 L47.7150997,41.7171298 L47.7150997,47.1923115 L47.7150997,52.9943698 L19.1857977,52.9943698 L19.1857977,47.1923115 L41.9766809,47.1923115 Z" id="path-1"></path>
    </defs>
    <g id="Stack" stroke="none" fill="none" transform="translate(-7, -1)" xlink:href="#path-1" fill-rule="evenodd" stroke-width="1">
        <g id="Hand" transform="translate(66.142, -28.5)" fill="#FFFFFF">
            <polygon id="Path" fill-rule="nonzero" points="10 82 10 32 20 32 20 52 40 52 40 32 50 32 50 82 40 82 40 62 20 62 20 82"></polygon>
            <path d="M65,82 L65,42 L75,42 L75,32 L95,32 L95,42 L105,42 L105,82 L95,82 L95,62 L75,62 L75,82 L65,82 Z M75,52 L95,52 L95,42.4 L75,42.4 L75,52 Z" id="Shape" fill-rule="nonzero"></path>
            <polygon id="Path" fill-rule="nonzero" points="120 82 120 32 130 32 130 42 140 42 140 52 150 52 150 62 160 62 160 32 170 32 170 82 160 82 160 72 150 72 150 62 140 62 140 52 130 52 130 82"></polygon>
            <path d="M185,82 L185,32 L215,32 L215,42 L225,42 L225,72 L215,72 L215,82 L185,82 Z M195,72 L214.6,72 L214.6,42 L195,42 L195,72 Z" id="Shape" fill-rule="nonzero"></path>
        </g>
        <g id="vectorized_019eb466-91ee-7acc-a133-9e6b5aab9294-copy-2" transform="translate(0, -0.5)">
            <g id="Group" transform="translate(2.1333, 1.9705)">
                <polygon id="Path" fill="#00A1CE" points="17.0524644 0 22.8722792 0 22.8722792 11.5223974 17.0524644 11.5223974"></polygon>
                <rect id="Rectangle" fill="#00A1CE" x="28.488604" y="0" width="5.57562678" height="11.4815379"></rect>
                <rect id="Rectangle" fill="#00A1CE" x="39.8433476" y="0" width="5.65702279" height="11.4815379"></rect>
                <rect id="Rectangle" fill="#00D7DB" x="5.6977208" y="11.4815379" width="5.65702279" height="11.7266953"></rect>
                <rect id="Rectangle" fill="#00C9E6" x="17.0524644" y="11.4815379" width="5.7384188" height="11.7266953"></rect>
                <rect id="Rectangle" fill="#00C9E6" x="28.488604" y="11.4815379" width="5.57562678" height="11.7266953"></rect>
                <rect id="Rectangle" fill="#00C9E6" x="39.8840456" y="11.4815379" width="5.65702279" height="11.7266953"></rect>
                <rect id="Rectangle" fill="#00D7DB" x="51.4422792" y="11.4815379" width="5.6977208" height="11.7266953"></rect>
                <path d="M11.313614,22.9630757 L11.313614,34.1994562 L57.099302,34.1994562 L57.099302,22.8813566 C57.099302,22.9222162 11.1512536,22.9630757 11.313614,22.9630757 Z" id="Path" fill="#00FFB2"></path>
                <polygon id="Path" fill="#00F880" points="17.0524644 34.1994562 22.8722792 34.1994562 22.8722792 45.7218536 17.0524644 45.7218536"></polygon>
                <polygon id="Path" fill="#00F880" points="28.488604 34.1994562 34.1863248 34.1994562 34.1863248 45.7218536 28.488604 45.7218536"></polygon>
                <polygon id="Path" fill="#00F880" points="39.8433476 34.1994562 51.4422792 34.1994562 51.4422792 40.2466719 45.5817664 40.2466719 45.5817664 45.7218536 39.8433476 45.7218536"></polygon>
                <polygon id="Path" fill="#00FB66" points="17.0524644 45.7218536 45.5817664 45.7218536 45.5817664 51.5239119 17.0524644 51.5239119"></polygon>
            </g>
        </g>
    </g>
</svg>