<?xml version="1.0" encoding="UTF-8"?>
<svg width="297px" height="53px" viewBox="0 0 297 53" version="1.1" xmlns="http://www.w3.org/2000/svg" xmlns:xlink="http://www.w3.org/1999/xlink">
    <title>Group</title>
    <g id="Page-1" stroke="none" stroke-width="1" fill="none" fill-rule="evenodd">
        <g id="Frame" transform="translate(-299, -464)">
            <g id="Group" transform="translate(292, 435)">
                <g id="vectorized_019eb466-91ee-7acc-a133-9e6b5aab9294-copy-2" transform="translate(0, 28)">
                    <g id="Group" transform="translate(2.1333, 1.9705)">
                        <polygon id="Path" fill="#00A1CE" points="17.0524644 0 22.8722792 0 22.8722792 11.5223974 17.0524644 11.5223974"></polygon>
                        <rect id="Rectangle" fill="#00A1CE" x="28.488604" y="0" width="5.57562678" height="11.4815379"></rect>
                        <rect id="Rectangle" fill="#00A1CE" x="39.8433476" y="0" width="5.65702279" height="11.4815379"></rect>
                        <rect id="Rectangle" fill="#00D7DB" x="5.6977208" y="11.4815379" width="5.65702279" height="11.7266953"></rect>
                        <rect id="Rectangle" fill="#00C9E6" x="17.0524644" y="11.4815379" width="5.7384188" height="11.7266953"></rect>
                        <rect id="Rectangle" fill="#00C9E6" x="28.488604" y="11.4815379" width="5.57562678" height="11.7266953"></rect>
                        <rect id="Rectangle" fill="#00C9E6" x="39.8840456" y="11.4815379" width="5.65702279" height="11.7266953"></rect>
                        <rect id="Rectangle" fill="#00D7DB" x="51.4422792" y="11.4815379" width="5.6977208" height="11.7266953"></rect>
                        <path d="M11.313614,22.9630757 L11.313614,34.1994562 L57.099302,34.1994562 L57.099302,22.8813566 C57.099302,22.9222162 11.1512536,22.9630757 11.313614,22.9630757 Z" id="Path" fill="#00FFB2"></path>
                        <polygon id="Path" fill="#00F880" points="17.0524644 34.1994562 22.8722792 34.1994562 22.8722792 45.7218536 17.0524644 45.7218536"></polygon>
                        <polygon id="Path" fill="#00F880" points="28.488604 34.1994562 34.1863248 34.1994562 34.1863248 45.7218536 28.488604 45.7218536"></polygon>
                        <polygon id="Path" fill="#00F880" points="39.8433476 34.1994562 51.4422792 34.1994562 51.4422792 40.2466719 45.5817664 40.2466719 45.5817664 45.7218536 39.8433476 45.7218536"></polygon>
                        <polygon id="Path" fill="#00FB66" points="17.0524644 45.7218536 45.5817664 45.7218536 45.5817664 51.5239119 17.0524644 51.5239119"></polygon>
                    </g>
                </g>
                <g id="Hand" transform="translate(64, 0)" fill="#000000" fill-rule="nonzero">
                    <polygon id="Path" points="10 82 10 32 20 32 20 52 40 52 40 32 50 32 50 82 40 82 40 62 20 62 20 82"></polygon>
                    <path d="M70,82 L70,42 L80,42 L80,32 L100,32 L100,42 L110,42 L110,82 L100,82 L100,62 L80,62 L80,82 L70,82 Z M80,52 L100,52 L100,42.4 L80,42.4 L80,52 Z" id="Shape"></path>
                    <polygon id="Path" points="130 82 130 32 140 32 140 42 150 42 150 52 160 52 160 62 170 62 170 32 180 32 180 82 170 82 170 72 160 72 160 62 150 62 150 52 140 52 140 82"></polygon>
                    <path d="M200,82 L200,32 L230,32 L230,42 L240,42 L240,72 L230,72 L230,82 L200,82 Z M210,72 L229.6,72 L229.6,42 L210,42 L210,72 Z" id="Shape"></path>
                </g>
            </g>
        </g>
    </g>
</svg>