<?xml version="1.0" encoding="UTF-8"?>
<svg width="51px" height="50px" viewBox="0 0 51 50" version="1.1" xmlns="http://www.w3.org/2000/svg" xmlns:xlink="http://www.w3.org/1999/xlink">
    <title>Morph Logo Mark</title>
    <g id="Morph-Logo-Mark" stroke="none" fill="none" transform="translate(-7, 0)" fill-rule="evenodd" stroke-width="1">
        <g id="Group" transform="translate(7.4246, 0.8506)" fill="#F0F2F3">
            <polygon id="Path" points="11.0002929 0 16.5702929 0 16.5702929 10.7960294 11.0002929 10.7960294"></polygon>
            <rect id="Rectangle" x="22.0794409" y="0" width="5.4015775" height="10.7577456"></rect>
            <polygon id="Rectangle" points="33.0797338 0 38.5601664 0 38.5601664 10.7577456 33.1191613 10.7577456"></polygon>
            <rect id="Rectangle" x="0" y="10.7577456" width="5.48043265" height="10.9874484"></rect>
            <rect id="Rectangle" x="11.0002929" y="10.7577456" width="5.55928779" height="10.9874484"></rect>
            <rect id="Rectangle" x="22.0794409" y="10.7577456" width="5.4015775" height="10.9874484"></rect>
            <rect id="Rectangle" x="33.1191613" y="10.7577456" width="5.48043265" height="10.9874484"></rect>
            <rect id="Rectangle" x="44.3165921" y="10.7577456" width="5.51986022" height="10.9874484"></rect>
            <path d="M5.44058699,21.5154913 L5.44058699,32.0435341 L49.7970247,32.0435341 L49.7970247,21.4389237 C49.7970247,21.4772075 5.28329478,21.5154913 5.44058699,21.5154913 Z" id="Path"></path>
            <polygon id="Path" points="11.0002929 32.0435341 16.6384358 32.0435341 16.6384358 42.8395636 11.0002929 42.8395636"></polygon>
            <polygon id="Path" points="22.0794409 32.0435341 27.5993011 32.0435341 27.5993011 42.8395636 22.0794409 42.8395636"></polygon>
            <polygon id="Path" points="33.0797338 32.0435341 44.3165921 32.0435341 44.3165921 37.7095354 38.6390215 37.7095354 38.6390215 42.8395636 33.0797338 42.8395636"></polygon>
            <polygon id="Path" points="11.0002929 42.8395636 38.6390215 42.8395636 38.6390215 48.2758621 11.0002929 48.2758621"></polygon>
        </g>
    </g>
</svg>