<?xml version="1.0" encoding="UTF-8"?>
<svg width="301px" height="51px" viewBox="0 0 301 51" version="1.1" xmlns="http://www.w3.org/2000/svg" xmlns:xlink="http://www.w3.org/1999/xlink">
    <title>Stack</title>
    <defs>
        <path d="M71.1419983,53.5 L71.1419983,3.5 L81.1419983,3.5 L81.1419983,23.5 L101.141998,23.5 L101.141998,3.5 L111.141998,3.5 L111.141998,53.5 L101.141998,53.5 L101.141998,33.5 L81.1419983,33.5 L81.1419983,53.5 L71.1419983,53.5 Z M131.141998,53.5 L131.141998,13.5 L141.141998,13.5 L141.141998,3.5 L161.141998,3.5 L161.141998,13.5 L171.141998,13.5 L171.141998,53.5 L161.141998,53.5 L161.141998,33.5 L141.141998,33.5 L141.141998,53.5 L131.141998,53.5 Z M141.141998,23.5 L161.141998,23.5 L161.141998,13.9 L141.141998,13.9 L141.141998,23.5 Z M191.141998,53.5 L191.141998,3.5 L201.141998,3.5 L201.141998,13.5 L211.141998,13.5 L211.141998,23.5 L221.141998,23.5 L221.141998,33.5 L231.141998,33.5 L231.141998,3.5 L241.141998,3.5 L241.141998,53.5 L231.141998,53.5 L231.141998,43.5 L221.141998,43.5 L221.141998,33.5 L211.141998,33.5 L211.141998,23.5 L201.141998,23.5 L201.141998,53.5 L191.141998,53.5 Z M261.141998,53.5 L261.141998,3.5 L291.141998,3.5 L291.141998,13.5 L301.141998,13.5 L301.141998,43.5 L291.141998,43.5 L291.141998,53.5 L261.141998,53.5 Z M271.141998,43.5 L290.741998,43.5 L290.741998,13.5 L271.141998,13.5 L271.141998,43.5 Z M35.0238947,36.6621294 L35.5758807,36.6621294 L35.5758807,37.1215349 L35.0238947,37.1215349 L35.0238947,38.5380352 L35.5758807,38.5380352 L35.5758807,39.0357245 L35.0238947,39.0357245 L35.0238947,40.4522248 L35.5758807,40.4522248 L35.5758807,40.9499141 L35.0238947,40.9499141 L35.0238947,42.3281306 L35.5758807,42.3281306 L35.5758807,42.7875361 L35.0238947,42.7875361 L35.0238947,43.8977661 L35.5758807,43.8977661 L35.5758807,44.4337392 L35.0238947,44.4337392 L35.0238947,45.5439692 L35.5758807,45.5439692 L35.5758807,46.0416585 L35.0238947,46.0416585 L35.0238947,47.1901722 L40.5043273,47.1901722 L40.5043273,36.3941428 L35.0238946,36.3941428 Z M14.403274,46.8456181 L13.851288,46.8456181 L13.851288,46.3479288 L14.403274,46.3479288 Z M18.188321,46.8456181 L17.636335,46.8456181 L17.636335,46.3479288 L18.188321,46.3479288 Z M16.2563699,46.8456181 L15.6649563,46.8456181 L15.6649563,46.3479288 L16.2563699,46.3479288 Z M40.2677619,46.8073343 L39.7157758,46.8073343 L39.7157758,46.3862126 L40.2677619,46.3862126 Z M25.482422,46.8073343 L24.9698635,46.8073343 L24.9698635,46.3479288 L25.482422,46.3479288 Z M27.3355179,46.8073343 L26.7835319,46.8073343 L26.7835319,46.3862126 L27.3355179,46.3862126 Z M29.2280414,46.8073343 L28.6760554,46.8073343 L28.6760554,46.3862126 L29.2280414,46.3862126 Z M36.4827149,46.8073343 L35.9701564,46.8073343 L35.9701564,46.3479288 L36.4827149,46.3479288 Z M38.3358108,46.8073343 L37.7838248,46.8073343 L37.7838248,46.3862126 L38.3358108,46.3862126 Z M26.3892562,46.0416585 L25.8766977,46.0416585 L25.8766977,45.5439692 L26.3892562,45.5439692 Z M13.3781571,46.0416585 L12.8261711,46.0416585 L12.8261711,45.5056854 L13.3781571,45.5056854 Z M15.3101082,46.0416585 L14.7581221,46.0416585 L14.7581221,45.5056854 L15.3101082,45.5056854 Z M17.2026317,46.0416585 L16.6900732,46.0416585 L16.6900732,45.5056854 L17.2026317,45.5056854 Z M28.2817797,46.0416585 L27.7297937,46.0416585 L27.7297937,45.5439692 L28.2817797,45.5439692 Z M37.389549,46.0416585 L36.8769906,46.0416585 L36.8769906,45.5439692 L37.389549,45.5439692 Z M39.2820725,46.0416585 L38.7300865,46.0416585 L38.7300865,45.5439692 L39.2820725,45.5439692 Z M16.2563699,45.1611312 L15.6649563,45.1611312 L15.6649563,44.7017257 L16.2563699,44.7017257 Z M14.403274,45.1228475 L13.851288,45.1228475 L13.851288,44.6634419 L14.403274,44.6634419 Z M18.188321,45.1228475 L17.636335,45.1228475 L17.636335,44.6634419 L18.188321,44.6634419 Z M29.2280414,45.1228475 L28.6760554,45.1228475 L28.6760554,44.6634419 L29.2280414,44.6634419 Z M40.2677619,45.1228475 L39.7157758,45.1228475 L39.7157758,44.6634419 L40.2677619,44.6634419 Z M27.3355179,45.0845637 L26.7835319,45.0845637 L26.7835319,44.6634419 L27.3355179,44.6634419 Z M38.3358108,45.0845637 L37.8232523,45.0845637 L37.8232523,44.6634419 L38.3358108,44.6634419 Z M36.4827149,45.0845637 L35.9701564,45.0845637 L35.9701564,44.6634419 L36.4827149,44.6634419 Z M25.482422,45.0845637 L24.9698635,45.0845637 L24.9698635,44.6634419 L25.482422,44.6634419 Z M39.2820725,44.4337392 L38.7300865,44.4337392 L38.7300865,43.8977661 L39.2820725,43.8977661 Z M17.2420592,44.4337392 L16.6900732,44.4337392 L16.6900732,43.8977661 L17.2420592,43.8977661 Z M15.3101082,44.4337392 L14.7581221,44.4337392 L14.7581221,43.8977661 L15.3101082,43.8977661 Z M13.3781571,44.4337392 L12.8261711,44.4337392 L12.8261711,43.8977661 L13.3781571,43.8977661 Z M26.3892562,44.4337392 L25.8766977,44.4337392 L25.8766977,43.8977661 L26.3892562,43.8977661 Z M28.2817797,44.4337392 L27.7297937,44.4337392 L27.7297937,43.8977661 L28.2817797,43.8977661 Z M37.389549,44.4337392 L36.8769906,44.4337392 L36.8769906,43.8977661 L37.389549,43.8977661 Z M18.188321,43.6297796 L17.636335,43.6297796 L17.636335,43.1320903 L18.188321,43.1320903 Z M14.403274,43.5914958 L13.851288,43.5914958 L13.851288,43.1320903 L14.403274,43.1320903 Z M16.2563699,43.5914958 L15.6649563,43.5914958 L15.6649563,43.1320903 L16.2563699,43.1320903 Z M27.3355179,43.553212 L26.7835319,43.553212 L26.7835319,43.1320903 L27.3355179,43.1320903 Z M25.482422,43.553212 L24.9698635,43.553212 L24.9698635,43.1320903 L25.482422,43.1320903 Z M29.2280414,43.553212 L28.6760554,43.553212 L28.6760554,43.1320903 L29.2280414,43.1320903 Z M36.4827149,43.553212 L35.9701564,43.553212 L35.9701564,43.1320903 L36.4827149,43.1320903 Z M38.3358108,43.553212 L37.8232523,43.553212 L37.8232523,43.1320903 L38.3358108,43.1320903 Z M40.2677619,43.553212 L39.7157758,43.553212 L39.7157758,43.1320903 L40.2677619,43.1320903 Z M13.4175847,42.7875361 L12.8261711,42.7875361 L12.8261711,42.2898468 L13.4175847,42.2898468 Z M15.3101082,42.7875361 L14.7581221,42.7875361 L14.7581221,42.2898468 L15.3101082,42.2898468 Z M17.2420592,42.7875361 L16.6900732,42.7875361 L16.6900732,42.2898468 L17.2420592,42.2898468 Z M26.3892562,42.7492523 L25.8766977,42.7492523 L25.8766977,42.2898468 L26.3892562,42.2898468 Z M28.2817797,42.7492523 L27.7297937,42.7492523 L27.7297937,42.2898468 L28.2817797,42.2898468 Z M39.2820725,42.7492523 L38.7300865,42.7492523 L38.7300865,42.2898468 L39.2820725,42.2898468 Z M37.389549,42.7492523 L36.8769906,42.7492523 L36.8769906,42.2898468 L37.389549,42.2898468 Z M18.188321,41.9070089 L17.636335,41.9070089 L17.636335,41.3710358 L18.188321,41.3710358 Z M16.2563699,41.8687251 L15.6649563,41.8687251 L15.6649563,41.3710358 L16.2563699,41.3710358 Z M25.482422,41.8687251 L24.9698635,41.8687251 L24.9698635,41.3710358 L25.482422,41.3710358 Z M27.3355179,41.8687251 L26.7835319,41.8687251 L26.7835319,41.3710358 L27.3355179,41.3710358 Z M29.2280414,41.8687251 L28.6760554,41.8687251 L28.6760554,41.3710358 L29.2280414,41.3710358 Z M36.4827149,41.8687251 L35.9701564,41.8687251 L35.9701564,41.3710358 L36.4827149,41.3710358 Z M38.3358108,41.8687251 L37.7838248,41.8687251 L37.7838248,41.3710358 L38.3358108,41.3710358 Z M40.2677619,41.8687251 L39.7157758,41.8687251 L39.7157758,41.3710358 L40.2677619,41.3710358 Z M14.3638464,41.8687251 L13.851288,41.8687251 L13.851288,41.3710358 L14.3638464,41.3710358 Z M13.4175847,40.9499141 L12.8261711,40.9499141 L12.8261711,40.413941 L13.4175847,40.413941 Z M37.389549,40.9499141 L36.8769906,40.9499141 L36.8769906,40.4522248 L37.389549,40.4522248 Z M39.2820725,40.9499141 L38.7300865,40.9499141 L38.7300865,40.4522248 L39.2820725,40.4522248 Z M28.2817797,40.9499141 L27.7297937,40.9499141 L27.7297937,40.4522248 L28.2817797,40.4522248 Z M17.2420592,40.9499141 L16.6900732,40.9499141 L16.6900732,40.413941 L17.2420592,40.413941 Z M26.3892562,40.9499141 L25.8766977,40.9499141 L25.8766977,40.4522248 L26.3892562,40.4522248 Z M15.3101082,40.9499141 L14.7581221,40.9499141 L14.7581221,40.413941 L15.3101082,40.413941 Z M18.1488934,39.9928193 L17.636335,39.9928193 L17.636335,39.4568462 L18.1488934,39.4568462 Z M25.482422,39.9545355 L24.9698635,39.9545355 L24.9698635,39.49513 L25.482422,39.49513 Z M27.3355179,39.9545355 L26.7835319,39.9545355 L26.7835319,39.4568462 L27.3355179,39.4568462 Z M29.2280414,39.9545355 L28.6760554,39.9545355 L28.6760554,39.4568462 L29.2280414,39.4568462 Z M36.4827149,39.9545355 L35.9701564,39.9545355 L35.9701564,39.49513 L36.4827149,39.49513 Z M38.3358108,39.9545355 L37.7838248,39.9545355 L37.7838248,39.4568462 L38.3358108,39.4568462 Z M40.2677619,39.9545355 L39.7157758,39.9545355 L39.7157758,39.4568462 L40.2677619,39.4568462 Z M16.2169423,39.9545355 L15.7043839,39.9545355 L15.7043839,39.4568462 L16.2169423,39.4568462 Z M14.3638464,39.9545355 L13.851288,39.9545355 L13.851288,39.4568462 L14.3638464,39.4568462 Z M15.3101082,39.0357245 L14.7581221,39.0357245 L14.7581221,38.5380352 L15.3101082,38.5380352 Z M39.2820725,39.0357245 L38.7300865,39.0357245 L38.7300865,38.5380352 L39.2820725,38.5380352 Z M37.4289766,39.0357245 L36.8769906,39.0357245 L36.8769906,38.5380352 L37.4289766,38.5380352 Z M28.2817797,39.0357245 L27.7297937,39.0357245 L27.7297937,38.5380352 L28.2817797,38.5380352 Z M26.4286837,39.0357245 L25.8766977,39.0357245 L25.8766977,38.5380352 L26.4286837,38.5380352 Z M17.2420592,39.0357245 L16.6900732,39.0357245 L16.6900732,38.5380352 L17.2420592,38.5380352 Z M13.4175847,39.0357245 L12.8261711,39.0357245 L12.8261711,38.5380352 L13.4175847,38.5380352 Z M18.1488934,38.1551973 L17.636335,38.1551973 L17.636335,37.6192242 L18.1488934,37.6192242 Z M14.3638464,38.1169135 L13.851288,38.1169135 L13.851288,37.6192242 L14.3638464,37.6192242 Z M16.2169423,38.1169135 L15.6649563,38.1169135 L15.6649563,37.6192242 L16.2169423,37.6192242 Z M38.2963832,38.0786297 L37.7838248,38.0786297 L37.7838248,37.5809404 L38.2963832,37.5809404 Z M40.2283343,38.0786297 L39.7157758,38.0786297 L39.7157758,37.5809404 L40.2283343,37.5809404 Z M36.4827149,38.0786297 L35.9701564,38.0786297 L35.9701564,37.5809404 L36.4827149,37.5809404 Z M29.1886139,38.0786297 L28.6760554,38.0786297 L28.6760554,37.5809404 L29.1886139,37.5809404 Z M25.482422,38.0786297 L24.9698635,38.0786297 L24.9698635,37.5809404 L25.482422,37.5809404 Z M27.2960903,38.0786297 L26.7835319,38.0786297 L26.7835319,37.5809404 L27.2960903,37.5809404 Z M17.2420592,37.2363862 L16.6900732,37.2363862 L16.6900732,36.7004131 L17.2420592,36.7004131 Z M15.3101082,37.2363862 L14.7581221,37.2363862 L14.7581221,36.7004131 L15.3101082,36.7004131 Z M13.4175847,37.2363862 L12.8261711,37.2363862 L12.8261711,36.7004131 L13.4175847,36.7004131 Z M39.2820725,37.1215349 L38.7300865,37.1215349 L38.7300865,36.6621294 L39.2820725,36.6621294 Z M37.389549,37.1215349 L36.8769906,37.1215349 L36.8769906,36.6621294 L37.389549,36.6621294 Z M28.2817797,37.1215349 L27.7297937,37.1215349 L27.7297937,36.6621294 L28.2817797,36.6621294 Z M26.3892562,37.1215349 L25.8766977,37.1215349 L25.8766977,36.6621294 L26.3892562,36.6621294 Z M8.80455861,36.0495887 L8.25257259,36.0495887 L8.25257259,35.5518994 L8.80455861,35.5518994 Z M10.7365097,36.0495887 L10.1450961,36.0495887 L10.1450961,35.5518994 L10.7365097,35.5518994 Z M12.550178,36.0495887 L12.0376196,36.0495887 L12.0376196,35.5518994 L12.550178,35.5518994 Z M7.85829686,35.245629 L7.30631084,35.245629 L7.30631084,34.7096559 L7.85829686,34.7096559 Z M9.75082036,35.245629 L9.19883434,35.245629 L9.19883434,34.7096559 L9.75082036,34.7096559 Z M11.6433439,35.245629 L11.0913578,35.245629 L11.0913578,34.7096559 L11.6433439,34.7096559 Z M8.76513104,34.4033856 L8.25257259,34.4033856 L8.25257259,33.9056963 L8.76513104,33.9056963 Z M10.6970821,34.4033856 L10.1450961,34.4033856 L10.1450961,33.9056963 L10.6970821,33.9056963 Z M12.5896056,34.4033856 L12.0376196,34.4033856 L12.0376196,33.9056963 L12.5896056,33.9056963 Z M7.85829686,33.599426 L7.30631084,33.599426 L7.30631084,33.0634529 L7.85829686,33.0634529 Z M9.75082036,33.599426 L9.19883434,33.599426 L9.19883434,33.0634529 L9.75082036,33.0634529 Z M11.6433439,33.599426 L11.0913578,33.599426 L11.0913578,33.0634529 L11.6433439,33.0634529 Z M10.7365097,32.7571825 L10.1845237,32.7571825 L10.1845237,32.2594932 L10.7365097,32.2594932 Z M8.76513104,32.7571825 L8.25257259,32.7571825 L8.25257259,32.2594932 L8.76513104,32.2594932 Z M12.5896056,32.7571825 L12.0770472,32.7571825 L12.0770472,32.2594932 L12.5896056,32.2594932 Z M7.85829686,31.9915067 L7.30631084,31.9915067 L7.30631084,31.4555336 L7.85829686,31.4555336 Z M9.75082036,31.9915067 L9.19883434,31.9915067 L9.19883434,31.4555336 L9.75082036,31.4555336 Z M11.6433439,31.9915067 L11.0913578,31.9915067 L11.0913578,31.4555336 L11.6433439,31.4555336 Z M10.7365097,31.1109795 L10.1845237,31.1109795 L10.1845237,30.6132902 L10.7365097,30.6132902 Z M12.5896056,31.1109795 L12.0770472,31.1109795 L12.0770472,30.6132902 L12.5896056,30.6132902 Z M8.76513104,31.0726957 L8.25257259,31.0726957 L8.25257259,30.6132902 L8.76513104,30.6132902 Z M7.85829686,30.2304523 L7.30631084,30.2304523 L7.30631084,29.6944792 L7.85829686,29.6944792 Z M9.75082036,30.2304523 L9.19883434,30.2304523 L9.19883434,29.6944792 L9.75082036,29.6944792 Z M11.6827714,30.2304523 L11.1307854,30.2304523 L11.1307854,29.6944792 L11.6827714,29.6944792 Z M8.76513104,29.3116412 L8.25257259,29.3116412 L8.25257259,28.8522357 L8.76513104,28.8522357 Z M10.6970821,29.3116412 L10.1845237,29.3116412 L10.1845237,28.8522357 L10.6970821,28.8522357 Z M12.5896056,29.3116412 L12.0770472,29.3116412 L12.0770472,28.8139519 L12.5896056,28.8139519 Z M7.85829686,28.4693978 L7.30631084,28.4693978 L7.30631084,27.9717085 L7.85829686,27.9717085 Z M9.75082036,28.4693978 L9.19883434,28.4693978 L9.19883434,27.9717085 L9.75082036,27.9717085 Z M11.6827714,28.4693978 L11.1307854,28.4693978 L11.1307854,27.9717085 L11.6827714,27.9717085 Z M10.6970821,27.5888706 L10.1845237,27.5888706 L10.1845237,27.0911813 L10.6970821,27.0911813 Z M12.550178,27.5888706 L12.0376196,27.5888706 L12.0376196,27.0911813 L12.550178,27.0911813 Z M8.76513104,27.5888706 L8.25257259,27.5888706 L8.25257259,27.0911813 L8.76513104,27.0911813 Z M11.6827714,26.7083434 L11.1307854,26.7083434 L11.1307854,26.2106541 L11.6827714,26.2106541 Z M9.75082036,26.7083434 L9.19883434,26.7083434 L9.19883434,26.2106541 L9.75082036,26.2106541 Z M7.85829686,26.7083434 L7.30631084,26.7083434 L7.30631084,26.2106541 L7.85829686,26.2106541 Z M5.09836675,25.5215458 L4.50695315,25.5215458 L4.50695315,25.0621403 L5.09836675,25.0621403 Z M3.28469839,25.5215458 L2.77213994,25.5215458 L2.77213994,25.0621403 L3.28469839,25.0621403 Z M7.03031782,25.5215458 L6.4783318,25.5215458 L6.4783318,25.0621403 L7.03031782,25.0621403 Z M6.08405607,24.7941537 L5.53207005,24.7941537 L5.53207005,24.2581807 L6.08405607,24.2581807 Z M4.19153257,24.7941537 L3.63954655,24.7941537 L3.63954655,24.2581807 L4.19153257,24.2581807 Z M2.41729178,24.7941537 L1.90473333,24.7941537 L1.90473333,24.2581807 L2.41729178,24.2581807 Z M7.03031782,23.8370589 L6.4783318,23.8370589 L6.4783318,23.3776534 L7.03031782,23.3776534 Z M5.09836675,23.8370589 L4.54638072,23.8370589 L4.54638072,23.3776534 L5.09836675,23.3776534 Z M3.28469839,23.8370589 L2.77213994,23.8370589 L2.77213994,23.3776534 L3.28469839,23.3776534 Z M2.41729178,22.9948155 L1.90473333,22.9948155 L1.90473333,22.4971262 L2.41729178,22.4971262 Z M6.08405607,22.9948155 L5.53207005,22.9948155 L5.53207005,22.4971262 L6.08405607,22.4971262 Z M4.19153257,22.9948155 L3.63954655,22.9948155 L3.63954655,22.4971262 L4.19153257,22.4971262 Z M3.28469839,22.0760045 L2.77213994,22.0760045 L2.77213994,21.5783152 L3.28469839,21.5783152 Z M5.09836675,22.0760045 L4.54638072,22.0760045 L4.54638072,21.5783152 L5.09836675,21.5783152 Z M7.03031782,22.0760045 L6.4783318,22.0760045 L6.4783318,21.5783152 L7.03031782,21.5783152 Z M2.41729178,21.1189097 L1.90473333,21.1189097 L1.90473333,20.6212204 L2.41729178,20.6212204 Z M4.19153257,21.1189097 L3.63954655,21.1189097 L3.63954655,20.6212204 L4.19153257,20.6212204 Z M6.08405607,21.1189097 L5.53207005,21.1189097 L5.53207005,20.6212204 L6.08405607,20.6212204 Z M7.03031782,20.2000987 L6.4783318,20.2000987 L6.4783318,19.7024094 L7.03031782,19.7024094 Z M5.09836675,20.2000987 L4.54638072,20.2000987 L4.54638072,19.7024094 L5.09836675,19.7024094 Z M3.28469839,20.2000987 L2.77213994,20.2000987 L2.77213994,19.7024094 L3.28469839,19.7024094 Z M6.08405607,19.2812877 L5.53207005,19.2812877 L5.53207005,18.7453146 L6.08405607,18.7453146 Z M4.15210499,19.2812877 L3.63954655,19.2812877 L3.63954655,18.7453146 L4.15210499,18.7453146 Z M2.41729178,19.2812877 L1.90473333,19.2812877 L1.90473333,18.7453146 L2.41729178,18.7453146 Z M7.03031782,18.3241929 L6.4783318,18.3241929 L6.4783318,17.8265036 L7.03031782,17.8265036 Z M5.09836675,18.3241929 L4.54638072,18.3241929 L4.54638072,17.8265036 L5.09836675,17.8265036 Z M3.28469839,18.3241929 L2.77213994,18.3241929 L2.77213994,17.8265036 L3.28469839,17.8265036 Z M2.41729178,17.5202332 L1.90473333,17.5202332 L1.90473333,17.0225439 L2.41729178,17.0225439 Z M6.08405607,17.5202332 L5.53207005,17.5202332 L5.53207005,17.0225439 L6.08405607,17.0225439 Z M4.15210499,17.5202332 L3.63954655,17.5202332 L3.63954655,17.0225439 L4.15210499,17.0225439 Z M7.03031782,16.7162736 L6.4783318,16.7162736 L6.4783318,16.2185843 L7.03031782,16.2185843 Z M5.09836675,16.7162736 L4.5858083,16.7162736 L4.5858083,16.2185843 L5.09836675,16.2185843 Z M3.28469839,16.7162736 L2.77213994,16.7162736 L2.77213994,16.2185843 L3.28469839,16.2185843 Z M4.15210499,15.9123139 L3.60011897,15.9123139 L3.60011897,15.4146246 L4.15210499,15.4146246 Z M6.12348364,15.9123139 L5.57149762,15.9123139 L5.57149762,15.4146246 L6.12348364,15.4146246 Z M2.41729178,15.9123139 L1.90473333,15.9123139 L1.90473333,15.4146246 L2.41729178,15.4146246 Z M24.0630294,36.6621294 L24.6150154,36.6621294 L24.6150154,37.1215349 L24.0630294,37.1215349 L24.0630294,38.5380352 L24.6150154,38.5380352 L24.6150154,39.0357245 L24.0630294,39.0357245 L24.0630294,40.4522248 L24.6150154,40.4522248 L24.6150154,40.9499141 L24.0630294,40.9499141 L24.0630294,42.3281306 L24.6150154,42.3281306 L24.6150154,42.7875361 L24.0630294,42.7875361 L24.0630294,43.8977661 L24.6150154,43.8977661 L24.6150154,44.4337392 L24.0630294,44.4337392 L24.0630294,45.5439692 L24.6150154,45.5439692 L24.6150154,46.0416585 L24.0630294,46.0416585 L24.0630294,47.1901722 L29.5040344,47.1901722 L29.5040344,36.3941428 L24.0630294,36.3941428 Z M46.0636151,42.0601441 L46.0636151,52.6264707 L18.4248864,52.6264707 L18.4248864,36.3941428 L12.8651805,36.3941428 L12.8647333,26.0956087 L7.42459355,26.0958027 L7.42459355,15.1083543 L12.9050262,15.1083543 L12.9045159,25.8660582 C13.2136622,25.865763 15.3045301,25.8639105 18.4240023,25.8608242 L18.4248864,15.1466381 L18.4248864,4.35060867 L23.9948864,4.35060867 L23.9948864,15.1466381 L23.9837333,15.1466087 L23.98306,25.8550924 C25.7224729,25.8532246 27.5838751,25.8511531 29.5044827,25.848905 L29.5040344,15.1083543 L29.5040344,4.35060867 L34.9056119,4.35060867 L34.9056119,15.1083543 L34.9055494,25.8422744 C36.8022478,25.839827 38.7002885,25.8372398 40.5441813,25.8345366 L40.5437549,15.1083543 L40.5043273,4.35060867 L45.98476,4.35060867 L45.98476,15.1083543 L46.0241875,15.1083543 L46.024879,25.8258125 C48.1480096,25.8221095 50.0915513,25.8182592 51.7420449,25.8143103 L51.7411856,15.1083543 L57.142,15.1083543 L57.142,36.3941428 L51.7411856,36.3941428 L51.7411856,42.0601441 Z" id="path-1"></path>
    </defs>
    <g id="Stack" stroke="none" fill="none" transform="translate(-1, -3)" xlink:href="#path-1" fill-rule="evenodd" stroke-width="1">
        <g id="Morph" transform="translate(61.142, -28.5)" fill="#FFFFFF">
            <polygon id="Path" fill-rule="nonzero" points="10 82 10 32 20 32 20 52 40 52 40 32 50 32 50 82 40 82 40 62 20 62 20 82"></polygon>
            <path d="M70,82 L70,42 L80,42 L80,32 L100,32 L100,42 L110,42 L110,82 L100,82 L100,62 L80,62 L80,82 L70,82 Z M80,52 L100,52 L100,42.4 L80,42.4 L80,52 Z" id="Shape" fill-rule="nonzero"></path>
            <polygon id="Path" fill-rule="nonzero" points="130 82 130 32 140 32 140 42 150 42 150 52 160 52 160 62 170 62 170 32 180 32 180 82 170 82 170 72 160 72 160 62 150 62 150 52 140 52 140 82"></polygon>
            <path d="M200,82 L200,32 L230,32 L230,42 L240,42 L240,72 L230,72 L230,82 L200,82 Z M210,72 L229.6,72 L229.6,42 L210,42 L210,72 Z" id="Shape" fill-rule="nonzero"></path>
        </g>
        <g id="Morph-Logo-Mark" transform="translate(0, 3.5)">
            <g id="Group" transform="translate(1.9047, 0.8506)">
                <polygon id="Path" fill="#F0F2F3" points="16.5201531 0 22.0901531 0 22.0901531 10.7960294 16.5201531 10.7960294"></polygon>
                <rect id="Rectangle" fill="#F0F2F3" x="27.5993011" y="0" width="5.4015775" height="10.7577456"></rect>
                <polygon id="Rectangle" fill="#F0F2F3" points="38.599594 0 44.0800266 0 44.0800266 10.7577456 38.6390215 10.7577456"></polygon>
                <rect id="Rectangle" fill="#CDCECE" x="5.51986022" y="10.7577456" width="5.48043265" height="10.9874484"></rect>
                <rect id="Rectangle" fill="#CDCECE" x="16.5201531" y="10.7577456" width="5.55928779" height="10.9874484"></rect>
                <rect id="Rectangle" fill="#CDCECE" x="27.5993011" y="10.7577456" width="5.4015775" height="10.9874484"></rect>
                <rect id="Rectangle" fill="#CDCECE" x="38.6390215" y="10.7577456" width="5.48043265" height="10.9874484"></rect>
                <rect id="Rectangle" fill="#CDCECE" x="49.8364523" y="10.7577456" width="5.51986022" height="10.9874484"></rect>
                <path d="M10.9604472,21.5154913 L10.9604472,32.0435341 L55.3168849,32.0435341 L55.3168849,21.4389237 C55.3168849,21.4772075 10.803155,21.5154913 10.9604472,21.5154913 Z" id="Path" fill="#F0F2F3"></path>
                <g transform="translate(0, 11.064)" id="Rectangle">
                    <rect fill="#707A7A" x="0" y="0" width="1" height="1"></rect>
                    <rect fill="#707A7A" x="1.69538564" y="0" width="1" height="1"></rect>
                    <rect fill="#707A7A" x="3.66676429" y="0" width="1" height="1"></rect>
                    <rect fill="#707A7A" x="0.867406606" y="0.803959638" width="1" height="1"></rect>
                    <rect fill="#707A7A" x="2.68107496" y="0.803959638" width="1" height="1"></rect>
                    <rect fill="#707A7A" x="4.57359847" y="0.803959638" width="1" height="1"></rect>
                    <rect fill="#CACECE" x="0" y="1.60791928" width="1" height="1"></rect>
                    <rect fill="#CACECE" x="1.73481321" y="1.60791928" width="1" height="1"></rect>
                    <rect fill="#CACECE" x="3.62733672" y="1.60791928" width="1" height="1"></rect>
                    <rect fill="#CACECE" x="0.867406606" y="2.41187891" width="1" height="1"></rect>
                    <rect fill="#CACECE" x="2.64164739" y="2.41187891" width="1" height="1"></rect>
                    <rect fill="#CACECE" x="4.57359847" y="2.41187891" width="1" height="1"></rect>
                    <rect fill="#CACECE" x="0" y="3.33068993" width="1" height="1"></rect>
                    <rect fill="#CACECE" x="1.73481321" y="3.33068993" width="1" height="1"></rect>
                    <rect fill="#CACECE" x="3.62733672" y="3.33068993" width="1" height="1"></rect>
                    <rect fill="#CACECE" x="0.867406606" y="4.28778474" width="1" height="1"></rect>
                    <rect fill="#CACECE" x="2.64164739" y="4.28778474" width="1" height="1"></rect>
                    <rect fill="#CACECE" x="4.57359847" y="4.28778474" width="1" height="1"></rect>
                    <rect fill="#CACECE" x="0" y="5.20659575" width="1" height="1"></rect>
                    <rect fill="#CACECE" x="1.73481321" y="5.20659575" width="1" height="1"></rect>
                    <rect fill="#CACECE" x="3.62733672" y="5.20659575" width="1" height="1"></rect>
                    <rect fill="#CACECE" x="0.867406606" y="6.16369056" width="1" height="1"></rect>
                    <rect fill="#CACECE" x="2.64164739" y="6.16369056" width="1" height="1"></rect>
                    <rect fill="#CACECE" x="4.57359847" y="6.16369056" width="1" height="1"></rect>
                    <rect fill="#707A7A" x="0" y="7.08250157" width="1" height="1"></rect>
                    <rect fill="#707A7A" x="1.73481321" y="7.08250157" width="1" height="1"></rect>
                    <rect fill="#707A7A" x="3.62733672" y="7.08250157" width="1" height="1"></rect>
                    <rect fill="#CACECE" x="0.867406606" y="7.96302879" width="1" height="1"></rect>
                    <rect fill="#CACECE" x="2.64164739" y="7.96302879" width="1" height="1"></rect>
                    <rect fill="#CACECE" x="4.57359847" y="7.96302879" width="1" height="1"></rect>
                    <rect fill="#707A7A" x="0" y="8.84355602" width="1" height="1"></rect>
                    <rect fill="#707A7A" x="1.73481321" y="8.84355602" width="1" height="1"></rect>
                    <rect fill="#707A7A" x="3.62733672" y="8.84355602" width="1" height="1"></rect>
                    <rect fill="#707A7A" x="0.867406606" y="9.64751566" width="1" height="1"></rect>
                    <rect fill="#707A7A" x="2.60221982" y="9.64751566" width="1" height="1"></rect>
                    <rect fill="#707A7A" x="4.57359847" y="9.64751566" width="1" height="1"></rect>
                </g>
                <g transform="translate(5.4016, 21.86)" id="Rectangle">
                    <rect fill="#707A7A" x="0" y="0" width="1" height="1"></rect>
                    <rect fill="#707A7A" x="1.8925235" y="0" width="1" height="1"></rect>
                    <rect fill="#707A7A" x="3.82447458" y="0" width="1" height="1"></rect>
                    <rect fill="#CACECE" x="0.946261752" y="0.880527223" width="1" height="1"></rect>
                    <rect fill="#CACECE" x="2.87821283" y="0.880527223" width="1" height="1"></rect>
                    <rect fill="#CACECE" x="4.73130876" y="0.880527223" width="1" height="1"></rect>
                    <rect fill="#707A7A" x="0" y="1.76105445" width="1" height="1"></rect>
                    <rect fill="#707A7A" x="1.8925235" y="1.76105445" width="1" height="1"></rect>
                    <rect fill="#707A7A" x="3.82447458" y="1.76105445" width="1" height="1"></rect>
                    <rect fill="#CACECE" x="0.946261752" y="2.64158167" width="1" height="1"></rect>
                    <rect fill="#CACECE" x="2.87821283" y="2.64158167" width="1" height="1"></rect>
                    <rect fill="#CACECE" x="4.77073633" y="2.60329788" width="1" height="1"></rect>
                    <rect fill="#707A7A" x="0" y="3.4838251" width="1" height="1"></rect>
                    <rect fill="#707A7A" x="1.8925235" y="3.4838251" width="1" height="1"></rect>
                    <rect fill="#707A7A" x="3.82447458" y="3.4838251" width="1" height="1"></rect>
                    <rect fill="#CACECE" x="0.946261752" y="4.40263611" width="1" height="1"></rect>
                    <rect fill="#CACECE" x="2.87821283" y="4.40263611" width="1" height="1"></rect>
                    <rect fill="#CACECE" x="4.77073633" y="4.40263611" width="1" height="1"></rect>
                    <rect fill="#707A7A" x="0" y="5.24487954" width="1" height="1"></rect>
                    <rect fill="#707A7A" x="1.8925235" y="5.24487954" width="1" height="1"></rect>
                    <rect fill="#707A7A" x="3.78504701" y="5.24487954" width="1" height="1"></rect>
                    <rect fill="#CACECE" x="0.946261752" y="6.04883918" width="1" height="1"></rect>
                    <rect fill="#CACECE" x="2.87821283" y="6.04883918" width="1" height="1"></rect>
                    <rect fill="#CACECE" x="4.77073633" y="6.04883918" width="1" height="1"></rect>
                    <rect fill="#707A7A" x="0" y="6.85279882" width="1" height="1"></rect>
                    <rect fill="#707A7A" x="1.8925235" y="6.85279882" width="1" height="1"></rect>
                    <rect fill="#707A7A" x="3.78504701" y="6.85279882" width="1" height="1"></rect>
                    <rect fill="#CACECE" x="0.946261752" y="7.69504225" width="1" height="1"></rect>
                    <rect fill="#CACECE" x="2.83878526" y="7.69504225" width="1" height="1"></rect>
                    <rect fill="#CACECE" x="4.73130876" y="7.69504225" width="1" height="1"></rect>
                    <rect fill="#707A7A" x="0" y="8.49900189" width="1" height="1"></rect>
                    <rect fill="#707A7A" x="1.8925235" y="8.49900189" width="1" height="1"></rect>
                    <rect fill="#707A7A" x="3.78504701" y="8.49900189" width="1" height="1"></rect>
                    <rect fill="#CACECE" x="0.946261752" y="9.34124532" width="1" height="1"></rect>
                    <rect fill="#CACECE" x="2.83878526" y="9.34124532" width="1" height="1"></rect>
                    <rect fill="#CACECE" x="4.73130876" y="9.34124532" width="1" height="1"></rect>
                </g>
                <g transform="translate(10.9214, 32.3498)" fill="#707A7A" id="Rectangle">
                    <rect x="0" y="0" width="1" height="1"></rect>
                    <rect x="1.93195108" y="0" width="1" height="1"></rect>
                    <rect x="3.86390215" y="0" width="1" height="1"></rect>
                    <rect x="1.0251169" y="0.918811015" width="1" height="1"></rect>
                    <rect x="2.83878526" y="0.918811015" width="1" height="1"></rect>
                    <rect x="4.81016391" y="0.918811015" width="1" height="1"></rect>
                    <rect x="0" y="1.83762203" width="1" height="1"></rect>
                    <rect x="1.93195108" y="1.83762203" width="1" height="1"></rect>
                    <rect x="3.86390215" y="1.83762203" width="1" height="1"></rect>
                    <rect x="1.0251169" y="2.75643304" width="1" height="1"></rect>
                    <rect x="2.87821283" y="2.75643304" width="1" height="1"></rect>
                    <rect x="4.81016391" y="2.75643304" width="1" height="1"></rect>
                    <rect x="0" y="3.71352785" width="1" height="1"></rect>
                    <rect x="1.93195108" y="3.71352785" width="1" height="1"></rect>
                    <rect x="3.86390215" y="3.71352785" width="1" height="1"></rect>
                    <rect x="1.0251169" y="4.67062266" width="1" height="1"></rect>
                    <rect x="2.83878526" y="4.67062266" width="1" height="1"></rect>
                    <rect x="4.81016391" y="4.67062266" width="1" height="1"></rect>
                    <rect x="0" y="5.58943367" width="1" height="1"></rect>
                    <rect x="1.93195108" y="5.58943367" width="1" height="1"></rect>
                    <rect x="3.86390215" y="5.58943367" width="1" height="1"></rect>
                    <rect x="1.0251169" y="6.4316771" width="1" height="1"></rect>
                    <rect x="2.83878526" y="6.4316771" width="1" height="1"></rect>
                    <rect x="4.81016391" y="6.4316771" width="1" height="1"></rect>
                    <rect x="0" y="7.19735295" width="1" height="1"></rect>
                    <rect x="1.93195108" y="7.19735295" width="1" height="1"></rect>
                    <rect x="3.86390215" y="7.19735295" width="1" height="1"></rect>
                    <rect x="1.0251169" y="7.96302879" width="1" height="1"></rect>
                    <rect x="2.83878526" y="8.00131259" width="1" height="1"></rect>
                    <rect x="4.81016391" y="7.96302879" width="1" height="1"></rect>
                    <rect x="0" y="8.80527223" width="1" height="1"></rect>
                    <rect x="1.93195108" y="8.80527223" width="1" height="1"></rect>
                    <rect x="3.86390215" y="8.80527223" width="1" height="1"></rect>
                    <rect x="1.0251169" y="9.64751566" width="1" height="1"></rect>
                    <rect x="2.83878526" y="9.64751566" width="1" height="1"></rect>
                    <rect x="4.81016391" y="9.64751566" width="1" height="1"></rect>
                </g>
                <polygon id="Path" fill="#F0F2F3" points="16.5201531 32.0435341 22.158296 32.0435341 22.158296 42.8395636 16.5201531 42.8395636"></polygon>
                <polygon id="Path" fill="#F0F2F3" points="27.5993011 32.0435341 33.1191613 32.0435341 33.1191613 42.8395636 27.5993011 42.8395636"></polygon>
                <polygon id="Path" fill="#F0F2F3" points="38.599594 32.0435341 49.8364523 32.0435341 49.8364523 37.7095354 44.1588818 37.7095354 44.1588818 42.8395636 38.599594 42.8395636"></polygon>
                <polygon id="Path" fill="#F0F2F3" points="16.5201531 42.8395636 44.1588818 42.8395636 44.1588818 48.2758621 16.5201531 48.2758621"></polygon>
                <g transform="translate(22.1583, 32.3115)" id="Rectangle">
                    <rect fill="#CACECE" x="0" y="0" width="1" height="1"></rect>
                    <rect fill="#CACECE" x="1.81366836" y="0" width="1" height="1"></rect>
                    <rect fill="#CACECE" x="3.66676429" y="0" width="1" height="1"></rect>
                    <rect fill="#CACECE" x="0.906834179" y="0.918811015" width="1" height="1"></rect>
                    <rect fill="#CACECE" x="2.72050254" y="0.918811015" width="1" height="1"></rect>
                    <rect fill="#CACECE" x="4.61302604" y="0.918811015" width="1" height="1"></rect>
                    <rect fill="#CACECE" x="0" y="1.87590582" width="1" height="1"></rect>
                    <rect fill="#CACECE" x="1.81366836" y="1.87590582" width="1" height="1"></rect>
                    <rect fill="#CACECE" x="3.66676429" y="1.87590582" width="1" height="1"></rect>
                    <rect fill="#CACECE" x="0.906834179" y="2.83300063" width="1" height="1"></rect>
                    <rect fill="#CACECE" x="2.72050254" y="2.79471684" width="1" height="1"></rect>
                    <rect fill="#CACECE" x="4.61302604" y="2.79471684" width="1" height="1"></rect>
                    <rect fill="#CACECE" x="0" y="3.79009544" width="1" height="1"></rect>
                    <rect fill="#CACECE" x="1.81366836" y="3.79009544" width="1" height="1"></rect>
                    <rect fill="#CACECE" x="3.66676429" y="3.79009544" width="1" height="1"></rect>
                    <rect fill="#CACECE" x="0.906834179" y="4.70890645" width="1" height="1"></rect>
                    <rect fill="#CACECE" x="2.72050254" y="4.70890645" width="1" height="1"></rect>
                    <rect fill="#CACECE" x="4.61302604" y="4.70890645" width="1" height="1"></rect>
                    <rect fill="#CACECE" x="0" y="5.66600126" width="1" height="1"></rect>
                    <rect fill="#707A7A" x="1.81366836" y="5.62771747" width="1" height="1"></rect>
                    <rect fill="#CACECE" x="3.66676429" y="5.62771747" width="1" height="1"></rect>
                    <rect fill="#CACECE" x="0.906834179" y="6.4699609" width="1" height="1"></rect>
                    <rect fill="#CACECE" x="2.72050254" y="6.4699609" width="1" height="1"></rect>
                    <rect fill="#CACECE" x="4.61302604" y="6.4699609" width="1" height="1"></rect>
                    <rect fill="#CACECE" x="0" y="7.23563674" width="1" height="1"></rect>
                    <rect fill="#CACECE" x="1.81366836" y="7.23563674" width="1" height="1"></rect>
                    <rect fill="#CACECE" x="3.66676429" y="7.23563674" width="1" height="1"></rect>
                    <rect fill="#CACECE" x="0.906834179" y="8.00131259" width="1" height="1"></rect>
                    <rect fill="#CACECE" x="2.72050254" y="8.00131259" width="1" height="1"></rect>
                    <rect fill="#CACECE" x="4.61302604" y="8.00131259" width="1" height="1"></rect>
                    <rect fill="#CACECE" x="0" y="8.88183981" width="1" height="1"></rect>
                    <rect fill="#707A7A" x="1.81366836" y="8.88183981" width="1" height="1"></rect>
                    <rect fill="#707A7A" x="3.66676429" y="8.88183981" width="1" height="1"></rect>
                    <rect fill="#CACECE" x="0.906834179" y="9.68579945" width="1" height="1"></rect>
                    <rect fill="#CACECE" x="2.72050254" y="9.72408324" width="1" height="1"></rect>
                    <rect fill="#CACECE" x="4.61302604" y="9.72408324" width="1" height="1"></rect>
                </g>
                <g transform="translate(33.1192, 32.3115)" id="Rectangle">
                    <rect fill="#CACECE" x="0" y="0" width="1" height="1"></rect>
                    <rect fill="#CACECE" x="1.85309593" y="0" width="1" height="1"></rect>
                    <rect fill="#CACECE" x="3.70619186" y="0" width="1" height="1"></rect>
                    <rect fill="#CACECE" x="0.946261752" y="0.918811015" width="1" height="1"></rect>
                    <rect fill="#707A7A" x="2.75993011" y="0.918811015" width="1" height="1"></rect>
                    <rect fill="#CACECE" x="4.69188119" y="0.918811015" width="1" height="1"></rect>
                    <rect fill="#CACECE" x="0" y="1.87590582" width="1" height="1"></rect>
                    <rect fill="#CACECE" x="1.85309593" y="1.87590582" width="1" height="1"></rect>
                    <rect fill="#707A7A" x="3.70619186" y="1.87590582" width="1" height="1"></rect>
                    <rect fill="#707A7A" x="0.946261752" y="2.83300063" width="1" height="1"></rect>
                    <rect fill="#CACECE" x="2.75993011" y="2.79471684" width="1" height="1"></rect>
                    <rect fill="#707A7A" x="4.69188119" y="2.79471684" width="1" height="1"></rect>
                    <rect fill="#CACECE" x="0" y="3.79009544" width="1" height="1"></rect>
                    <rect fill="#CACECE" x="1.85309593" y="3.79009544" width="1" height="1"></rect>
                    <rect fill="#707A7A" x="3.70619186" y="3.79009544" width="1" height="1"></rect>
                    <rect fill="#CACECE" x="0.946261752" y="4.70890645" width="1" height="1"></rect>
                    <rect fill="#707A7A" x="2.75993011" y="4.70890645" width="1" height="1"></rect>
                    <rect fill="#707A7A" x="4.69188119" y="4.70890645" width="1" height="1"></rect>
                    <rect fill="#CACECE" x="0" y="5.66600126" width="1" height="1"></rect>
                    <rect fill="#CACECE" x="1.85309593" y="5.62771747" width="1" height="1"></rect>
                    <rect fill="#707A7A" x="3.70619186" y="5.62771747" width="1" height="1"></rect>
                    <rect fill="#CACECE" x="0.946261752" y="6.4699609" width="1" height="1"></rect>
                    <rect fill="#CACECE" x="2.79935768" y="6.4699609" width="1" height="1"></rect>
                    <rect fill="#CACECE" x="4.69188119" y="6.4699609" width="1" height="1"></rect>
                    <rect fill="#CACECE" x="0" y="7.23563674" width="1" height="1"></rect>
                    <rect fill="#707A7A" x="1.85309593" y="7.23563674" width="1" height="1"></rect>
                    <rect fill="#707A7A" x="3.70619186" y="7.23563674" width="1" height="1"></rect>
                    <rect fill="#707A7A" x="0.946261752" y="8.00131259" width="1" height="1"></rect>
                    <rect fill="#CACECE" x="2.79935768" y="8.00131259" width="1" height="1"></rect>
                    <rect fill="#CACECE" x="4.69188119" y="8.00131259" width="1" height="1"></rect>
                    <rect fill="#CACECE" x="0" y="8.88183981" width="1" height="1"></rect>
                    <rect fill="#707A7A" x="1.85309593" y="8.88183981" width="1" height="1"></rect>
                    <rect fill="#707A7A" x="3.70619186" y="8.88183981" width="1" height="1"></rect>
                    <rect fill="#707A7A" x="0.946261752" y="9.68579945" width="1" height="1"></rect>
                    <rect fill="#CACECE" x="2.75993011" y="9.72408324" width="1" height="1"></rect>
                    <rect fill="#CACECE" x="4.69188119" y="9.72408324" width="1" height="1"></rect>
                </g>
            </g>
        </g>
    </g>
</svg>